{
.appVersion = "3133";
.formatVersion = 3;
DisplayStrings = (
"@"
);
customParameters = (
{
name = panose;
value = (
0,
0,
5,
0,
0,
0,
0,
0,
0,
0
);
},
{
name = unicodeRanges;
value = (
0
);
},
{
name = codePageRanges;
value = (
"1252"
);
},
{
name = blueScale;
value = 0.037;
},
{
name = glyphOrder;
value = (
.notdef,
A,
B,
C,
D,
E,
F,
G,
H,
I,
J,
K,
L,
M,
N,
O,
P,
Q,
R,
S,
T,
U,
V,
W,
X,
Y,
Z,
a,
b,
c,
d,
e,
f,
g,
h,
i,
j,
k,
l,
m,
n,
o,
p,
q,
r,
s,
t,
u,
v,
w,
x,
y,
z,
zero,
one,
two,
three,
four,
five,
six,
seven,
eight,
nine,
asterisk,
backslash,
colon,
comma,
exclam,
numbersign,
period,
question,
quotedbl,
quotesingle,
semicolon,
slash,
underscore,
braceleft,
braceright,
bracketleft,
bracketright,
parenleft,
parenright,
hyphen,
space,
CR,
.null,
dollar,
asciitilde,
equal,
greater,
less,
percent,
plus,
bar,
at,
ampersand,
asciicircum,
grave
);
}
);
date = "2017-03-01 08:49:26 +0000";
familyName = StoneSkip;
fontMaster = (
{
customParameters = (
{
name = typoAscender;
value = 750;
},
{
name = typoDescender;
value = -170;
},
{
name = typoLineGap;
value = 280;
},
{
name = winAscent;
value = 1030;
},
{
name = winDescent;
value = 170;
},
{
name = hheaAscender;
value = 1030;
},
{
name = hheaDescender;
value = -170;
},
{
name = strikeoutPosition;
value = 300;
},
{
name = strikeoutSize;
value = 50;
},
{
name = underlinePosition;
value = -75;
}
);
id = m01;
metricValues = (
{
pos = 750;
},
{
pos = 700;
},
{
pos = 500;
},
{
},
{
pos = -170;
},
{
}
);
name = Medium;
}
);
glyphs = (
{
glyphname = A;
layers = (
{
layerId = m01;
shapes = (
{
closed = 1;
nodes = (
(167,694,o),
(243,714,o),
(320,719,cs),
(397,724,o),
(478,718,o),
(543,703,cs),
(607,687,o),
(656,662,o),
(672,631,cs),
(696,586,o),
(713,503,o),
(722,412,cs),
(730,321,o),
(728,222,o),
(713,142,cs),
(697,62,o),
(669,2,o),
(622,-10,cs),
(590,-18,o),
(556,14,o),
(517,49,cs),
(477,84,o),
(433,120,o),
(378,120,cs),
(342,120,o),
(312,103,o),
(285,82,cs),
(272,71,o),
(259,60,o),
(247,49,cs),
(223,25,o),
(200,5,o),
(176,-3,cs),
(163,-8,o),
(150,-8,o),
(136,-4,cs),
(92,11,o),
(59,80,o),
(42,169,cs),
(25,258,o),
(21,369,o),
(33,462,cs),
(44,555,o),
(71,634,o),
(114,661,cs)
);
},
{
closed = 1;
nodes = (
(388,410,o),
(335,411,o),
(311,383,cs),
(299,370,o),
(296,350,o),
(301,330,cs),
(305,310,o),
(317,289,o),
(336,272,cs),
(373,237,o),
(425,236,o),
(453,268,cs),
(482,300,o),
(472,350,o),
(429,379,cs)
);
}
);
width = 749;
}
);
note = A;
unicode = 65;
},
{
glyphname = B;
layers = (
{
layerId = m01;
shapes = (
{
closed = 1;
nodes = (
(699,173,o),
(653,126,o),
(586,88,cs),
(518,50,o),
(431,21,o),
(354,5,cs),
(277,-11,o),
(209,-15,o),
(184,-4,cs),
(175,0,o),
(165,12,o),
(154,32,cs),
(133,71,o),
(111,133,o),
(91,208,cs),
(71,283,o),
(56,363,o),
(45,439,cs),
(34,515,o),
(31,580,o),
(38,625,cs),
(41,647,o),
(48,662,o),
(57,669,cs),
(112,712,o),
(192,730,o),
(276,731,cs),
(359,731,o),
(445,714,o),
(511,690,cs),
(577,665,o),
(624,631,o),
(628,598,cs),
(635,549,o),
(623,509,o),
(612,477,cs),
(600,444,o),
(589,416,o),
(597,389,cs),
(605,362,o),
(627,342,o),
(648,318,cs),
(669,294,o),
(690,268,o),
(694,228,cs)
);
},
{
closed = 1;
nodes = (
(263,512,o),
(271,474,o),
(294,449,cs),
(306,436,o),
(319,429,o),
(333,429,cs),
(361,429,o),
(382,458,o),
(375,491,cs),
(368,523,o),
(338,548,o),
(310,549,cs),
(295,549,o),
(285,544,o),
(278,533,cs)
);
},
{
closed = 1;
nodes = (
(451,287,o),
(446,323,o),
(423,335,cs),
(402,348,o),
(366,335,o),
(346,307,cs),
(325,278,o),
(328,243,o),
(355,228,cs),
(382,213,o),
(415,225,o),
(434,256,cs)
);
}
);
width = 711;
}
);
note = B;
unicode = 66;
},
{
glyphname = C;
layers = (
{
layerId = m01;
shapes = (
{
closed = 1;
nodes = (
(118,698,o),
(183,714,o),
(253,721,cs),
(323,728,o),
(398,722,o),
(458,709,cs),
(518,696,o),
(563,672,o),
(568,641,cs),
(575,610,o),
(560,585,o),
(538,561,cs),
(527,548,o),
(514,536,o),
(501,523,cs),
(474,497,o),
(451,466,o),
(439,430,cs),
(427,394,o),
(431,353,o),
(456,332,cs),
(480,311,o),
(517,292,o),
(558,276,cs),
(598,259,o),
(633,240,o),
(656,218,cs),
(667,207,o),
(673,194,o),
(673,179,cs),
(673,150,o),
(633,114,o),
(576,81,cs),
(519,48,o),
(443,19,o),
(369,3,cs),
(295,-13,o),
(222,-15,o),
(173,6,cs),
(124,27,o),
(85,99,o),
(60,188,cs),
(35,276,o),
(21,382,o),
(25,473,cs),
(28,564,o),
(46,640,o),
(82,669,cs)
);
}
);
width = 691;
}
);
note = C;
unicode = 67;
},
{
glyphname = D;
layers = (
{
layerId = m01;
shapes = (
{
closed = 1;
nodes = (
(105,737,o),
(181,737,o),
(268,720,cs),
(355,703,o),
(452,670,o),
(530,626,cs),
(608,582,o),
(668,529,o),
(681,472,cs),
(696,415,o),
(676,338,o),
(636,263,cs),
(596,188,o),
(534,115,o),
(463,64,cs),
(391,12,o),
(308,-16,o),
(228,-3,cs),
(188,4,o),
(151,48,o),
(120,112,cs),
(89,176,o),
(64,258,o),
(47,342,cs),
(30,426,o),
(22,511,o),
(24,579,cs),
(26,647,o),
(39,698,o),
(66,714,cs)
);
},
{
closed = 1;
nodes = (
(295,544,o),
(277,533,o),
(265,517,cs),
(252,501,o),
(243,478,o),
(243,454,cs),
(243,407,o),
(277,370,o),
(314,369,cs),
(335,368,o),
(355,377,o),
(368,393,cs),
(381,409,o),
(389,430,o),
(386,454,cs),
(379,517,o),
(353,534,o),
(314,541,cs)
);
}
);
width = 718;
}
);
note = D;
unicode = 68;
},
{
glyphname = E;
layers = (
{
layerId = m01;
shapes = (
{
closed = 1;
nodes = (
(481,709,o),
(492,685,o),
(492,658,cs),
(492,645,o),
(490,631,o),
(485,617,cs),
(475,588,o),
(464,560,o),
(459,536,cs),
(454,511,o),
(462,491,o),
(485,476,cs),
(496,469,o),
(508,461,o),
(520,454,cs),
(544,439,o),
(564,424,o),
(561,396,cs),
(558,368,o),
(540,354,o),
(524,339,cs),
(507,323,o),
(490,309,o),
(487,281,cs),
(486,262,o),
(513,249,o),
(546,234,cs),
(578,219,o),
(615,202,o),
(632,177,cs),
(648,152,o),
(644,120,o),
(595,72,cs),
(523,1,o),
(433,-19,o),
(346,-6,cs),
(258,7,o),
(173,55,o),
(112,121,cs),
(51,187,o),
(13,271,o),
(17,358,cs),
(21,439,o),
(59,513,o),
(112,573,cs),
(165,632,o),
(231,677,o),
(294,705,cs),
(357,732,o),
(413,740,o),
(445,725,cs)
);
}
);
width = 668;
}
);
note = E;
unicode = 69;
},
{
glyphname = F;
layers = (
{
layerId = m01;
shapes = (
{
closed = 1;
nodes = (
(452,690,o),
(465,660,o),
(457,628,cs),
(449,596,o),
(419,562,o),
(394,530,cs),
(369,498,o),
(349,468,o),
(360,443,cs),
(371,418,o),
(397,395,o),
(422,372,cs),
(447,349,o),
(473,328,o),
(482,305,cs),
(490,281,o),
(484,258,o),
(444,233,cs),
(403,206,o),
(382,168,o),
(370,131,cs),
(363,112,o),
(358,94,o),
(355,76,cs),
(348,40,o),
(339,11,o),
(321,-5,cs),
(303,-21,o),
(264,-19,o),
(222,4,cs),
(180,27,o),
(138,66,o),
(102,116,cs),
(65,166,o),
(39,223,o),
(25,284,cs),
(11,345,o),
(14,416,o),
(41,485,cs),
(68,553,o),
(110,610,o),
(162,651,cs),
(213,692,o),
(268,717,o),
(320,722,cs),
(346,725,o),
(370,722,o),
(391,714,cs)
);
}
);
width = 512;
}
);
note = F;
unicode = 70;
},
{
glyphname = G;
layers = (
{
layerId = m01;
shapes = (
{
closed = 1;
nodes = (
(385,716,o),
(417,697,o),
(436,668,cs),
(455,639,o),
(459,600,o),
(461,560,cs),
(462,540,o),
(462,520,o),
(463,501,cs),
(463,461,o),
(471,428,o),
(491,405,cs),
(500,394,o),
(515,386,o),
(534,383,cs),
(598,371,o),
(636,362,o),
(659,350,cs),
(682,337,o),
(689,321,o),
(692,294,cs),
(695,271,o),
(682,258,o),
(663,246,cs),
(653,240,o),
(642,234,o),
(630,229,cs),
(606,217,o),
(582,203,o),
(565,183,cs),
(556,172,o),
(551,160,o),
(548,145,cs),
(543,116,o),
(522,81,o),
(490,50,cs),
(457,19,o),
(412,-5,o),
(358,-12,cs),
(304,-20,o),
(239,-8,o),
(170,33,cs),
(77,89,o),
(33,184,o),
(26,285,cs),
(19,386,o),
(49,493,o),
(104,576,cs),
(159,659,o),
(237,716,o),
(328,716,cs)
);
}
);
width = 730;
}
);
note = G;
unicode = 71;
},
{
glyphname = H;
layers = (
{
layerId = m01;
shapes = (
{
closed = 1;
nodes = (
(139,703,o),
(172,691,o),
(200,668,cs),
(213,656,o),
(226,643,o),
(237,628,cs),
(260,598,o),
(281,569,o),
(306,550,cs),
(318,540,o),
(332,535,o),
(348,535,cs),
(384,535,o),
(411,555,o),
(435,580,cs),
(446,593,o),
(458,606,o),
(469,620,cs),
(492,648,o),
(515,672,o),
(546,684,cs),
(577,696,o),
(623,692,o),
(650,649,cs),
(677,605,o),
(691,538,o),
(693,456,cs),
(695,374,o),
(686,289,o),
(669,209,cs),
(652,129,o),
(625,65,o),
(592,28,cs),
(575,9,o),
(557,0,o),
(538,0,cs),
(493,0,o),
(471,32,o),
(449,65,cs),
(427,97,o),
(402,129,o),
(353,129,cs),
(320,129,o),
(295,113,o),
(272,91,cs),
(261,80,o),
(250,68,o),
(240,57,cs),
(220,33,o),
(199,14,o),
(176,7,cs),
(153,-1,o),
(118,9,o),
(90,53,cs),
(61,97,o),
(40,162,o),
(26,239,cs),
(12,315,o),
(6,396,o),
(10,472,cs),
(13,548,o),
(25,611,o),
(49,652,cs),
(60,673,o),
(74,685,o),
(91,690,cs)
);
}
);
width = 718;
}
);
note = H;
unicode = 72;
},
{
glyphname = I;
layers = (
{
layerId = m01;
shapes = (
{
closed = 1;
nodes = (
(374,618,o),
(357,552,o),
(336,485,cs),
(305,387,ls),
(294,356,o),
(289,329,o),
(289,307,cs),
(289,256,o),
(312,206,o),
(331,158,cs),
(350,110,o),
(365,66,o),
(349,29,cs),
(338,4,o),
(301,-9,o),
(257,-13,cs),
(212,-17,o),
(159,-10,o),
(116,4,cs),
(72,18,o),
(40,39,o),
(33,67,cs),
(24,107,o),
(39,144,o),
(56,181,cs),
(73,218,o),
(93,258,o),
(93,303,cs),
(93,350,o),
(74,408,o),
(58,465,cs),
(41,522,o),
(25,579,o),
(29,620,cs),
(32,651,o),
(67,674,o),
(112,688,cs),
(156,702,o),
(212,706,o),
(260,702,cs),
(307,698,o),
(346,685,o),
(355,662,cs)
);
}
);
width = 391;
}
);
note = I;
unicode = 73;
},
{
glyphname = J;
layers = (
{
layerId = m01;
shapes = (
{
closed = 1;
nodes = (
(159,681,o),
(195,702,o),
(241,715,cs),
(287,727,o),
(344,731,o),
(394,723,cs),
(444,715,o),
(487,695,o),
(507,658,cs),
(520,634,o),
(539,586,o),
(555,526,cs),
(571,465,o),
(585,393,o),
(589,322,cs),
(592,250,o),
(583,180,o),
(556,124,cs),
(528,67,o),
(481,24,o),
(405,8,cs),
(304,-13,o),
(225,-9,o),
(165,8,cs),
(105,25,o),
(64,56,o),
(40,86,cs),
(15,116,o),
(8,145,o),
(13,160,cs),
(29,201,o),
(54,210,o),
(83,217,cs),
(112,224,o),
(146,228,o),
(182,260,cs),
(213,288,o),
(217,330,o),
(209,378,cs),
(205,402,o),
(199,427,o),
(190,453,cs),
(173,504,o),
(157,554,o),
(149,599,cs),
(145,621,o),
(146,640,o),
(151,656,cs)
);
}
);
width = 622;
}
);
note = J;
unicode = 74;
},
{
glyphname = K;
layers = (
{
layerId = m01;
shapes = (
{
closed = 1;
nodes = (
(213,741,o),
(245,727,o),
(266,703,cs),
(276,690,o),
(284,676,o),
(290,660,cs),
(301,627,o),
(311,597,o),
(327,578,cs),
(343,558,o),
(367,560,o),
(392,584,cs),
(404,595,o),
(418,609,o),
(435,625,cs),
(467,657,o),
(506,694,o),
(545,716,cs),
(584,738,o),
(623,745,o),
(656,716,cs),
(691,687,o),
(694,648,o),
(683,605,cs),
(671,562,o),
(647,518,o),
(624,476,cs),
(601,434,o),
(581,395,o),
(581,367,cs),
(581,339,o),
(601,297,o),
(625,250,cs),
(649,203,o),
(675,152,o),
(687,108,cs),
(698,63,o),
(693,24,o),
(654,0,cs),
(622,-19,o),
(585,-8,o),
(547,16,cs),
(528,27,o),
(509,41,o),
(490,57,cs),
(453,89,o),
(418,119,o),
(391,139,cs),
(363,159,o),
(341,157,o),
(322,136,cs),
(312,125,o),
(303,113,o),
(294,98,cs),
(277,69,o),
(258,33,o),
(233,12,cs),
(208,-9,o),
(173,-19,o),
(122,2,cs),
(81,19,o),
(54,70,o),
(38,138,cs),
(22,206,o),
(19,291,o),
(24,375,cs),
(29,459,o),
(44,542,o),
(67,606,cs),
(90,670,o),
(119,716,o),
(154,725,cs)
);
}
);
width = 720;
}
);
note = K;
unicode = 75;
},
{
glyphname = L;
layers = (
{
layerId = m01;
shapes = (
{
closed = 1;
nodes = (
(299,734,o),
(313,694,o),
(325,639,cs),
(331,611,o),
(337,580,o),
(342,547,cs),
(353,479,o),
(367,414,o),
(391,360,cs),
(414,306,o),
(446,288,o),
(479,277,cs),
(495,271,o),
(512,266,o),
(530,262,cs),
(566,253,o),
(604,244,o),
(633,229,cs),
(661,214,o),
(682,192,o),
(682,159,cs),
(682,134,o),
(657,103,o),
(615,75,cs),
(573,47,o),
(515,22,o),
(452,7,cs),
(388,-8,o),
(320,-11,o),
(257,5,cs),
(193,21,o),
(136,56,o),
(95,117,cs),
(40,200,o),
(23,296,o),
(32,389,cs),
(40,481,o),
(74,569,o),
(119,633,cs),
(163,697,o),
(219,738,o),
(272,735,cs)
);
}
);
width = 709;
}
);
note = L;
unicode = 76;
},
{
glyphname = M;
layers = (
{
layerId = m01;
shapes = (
{
closed = 1;
nodes = (
(85,20,o),
(60,79,o),
(43,158,cs),
(26,237,o),
(18,332,o),
(29,420,cs),
(40,508,o),
(70,588,o),
(130,635,cs),
(191,682,o),
(266,705,o),
(343,713,cs),
(420,720,o),
(500,710,o),
(570,687,cs),
(640,664,o),
(699,629,o),
(738,586,cs),
(775,545,o),
(805,468,o),
(825,384,cs),
(844,299,o),
(853,206,o),
(848,132,cs),
(843,58,o),
(824,3,o),
(785,-5,cs),
(753,-12,o),
(732,-4,o),
(717,10,cs),
(709,17,o),
(702,25,o),
(696,34,cs),
(684,53,o),
(671,73,o),
(655,89,cs),
(639,105,o),
(607,115,o),
(588,111,cs),
(569,106,o),
(558,93,o),
(547,74,cs),
(536,55,o),
(523,37,o),
(502,22,cs),
(481,6,o),
(437,-2,o),
(410,11,cs),
(397,17,o),
(384,25,o),
(372,34,cs),
(348,53,o),
(324,75,o),
(283,80,cs),
(259,83,o),
(241,70,o),
(223,52,cs),
(196,24,ls),
(179,4,o),
(161,-9,o),
(142,-11,cs),
(132,-12,o),
(121,-8,o),
(109,1,cs)
);
}
);
width = 884;
}
);
note = M;
unicode = 77;
},
{
glyphname = N;
layers = (
{
layerId = m01;
shapes = (
{
closed = 1;
nodes = (
(99,6,o),
(73,53,o),
(56,118,cs),
(39,183,o),
(28,269,o),
(27,355,cs),
(26,441,o),
(34,527,o),
(50,593,cs),
(66,659,o),
(91,706,o),
(126,713,cs),
(159,720,o),
(200,705,o),
(244,682,cs),
(266,670,o),
(288,657,o),
(311,642,cs),
(356,613,o),
(399,587,o),
(436,571,cs),
(473,555,o),
(507,559,o),
(531,576,cs),
(555,593,o),
(573,618,o),
(589,645,cs),
(605,672,o),
(626,693,o),
(656,703,cs),
(686,713,o),
(727,710,o),
(746,668,cs),
(765,626,o),
(775,559,o),
(778,477,cs),
(781,395,o),
(777,307,o),
(766,226,cs),
(754,145,o),
(737,77,o),
(714,36,cs),
(690,-5,o),
(646,-6,o),
(606,3,cs),
(565,11,o),
(531,31,o),
(501,55,cs),
(471,78,o),
(442,100,o),
(414,115,cs),
(399,122,o),
(384,126,o),
(367,126,cs),
(318,126,o),
(282,90,o),
(247,57,cs),
(212,24,o),
(177,-7,o),
(132,1,cs)
);
}
);
width = 805;
}
);
note = N;
unicode = 78;
},
{
glyphname = O;
layers = (
{
layerId = m01;
shapes = (
{
closed = 1;
nodes = (
(262,720,o),
(347,725,o),
(424,703,cs),
(501,681,o),
(572,631,o),
(627,571,cs),
(682,510,o),
(721,439,o),
(736,374,cs),
(757,275,o),
(740,192,o),
(690,129,cs),
(640,65,o),
(557,21,o),
(452,1,cs),
(347,-19,o),
(253,11,o),
(180,63,cs),
(107,114,o),
(54,187,o),
(33,255,cs),
(12,323,o),
(3,400,o),
(23,473,cs),
(43,546,o),
(90,618,o),
(181,671,cs)
);
},
{
closed = 1;
nodes = (
(323,286,o),
(349,291,o),
(370,303,cs),
(391,315,o),
(409,336,o),
(418,353,cs),
(425,364,o),
(432,386,o),
(434,410,cs),
(436,433,o),
(432,457,o),
(413,473,cs),
(394,489,o),
(367,492,o),
(342,486,cs),
(317,480,o),
(292,464,o),
(276,444,cs),
(260,424,o),
(251,393,o),
(254,365,cs),
(257,336,o),
(269,310,o),
(296,298,cs)
);
}
);
width = 761;
}
);
note = O;
unicode = 79;
},
{
glyphname = P;
layers = (
{
layerId = m01;
shapes = (
{
closed = 1;
nodes = (
(134,715,o),
(204,709,o),
(280,686,cs),
(355,662,o),
(435,620,o),
(493,572,cs),
(551,524,o),
(586,471,o),
(571,424,cs),
(558,375,o),
(516,334,o),
(474,300,cs),
(453,283,o),
(433,267,o),
(414,254,cs),
(376,226,o),
(365,207,o),
(349,169,cs),
(333,131,o),
(317,90,o),
(297,54,cs),
(277,18,o),
(251,-8,o),
(218,-15,cs),
(185,-23,o),
(150,-11,o),
(126,28,cs),
(102,67,o),
(78,126,o),
(58,199,cs),
(38,271,o),
(23,351,o),
(19,428,cs),
(14,505,o),
(22,575,o),
(45,628,cs),
(56,654,o),
(73,674,o),
(94,688,cs)
);
},
{
closed = 1;
nodes = (
(334,323,o),
(353,337,o),
(365,355,cs),
(377,373,o),
(384,396,o),
(380,416,cs),
(376,436,o),
(346,449,o),
(314,452,cs),
(282,455,o),
(248,448,o),
(239,425,cs),
(231,404,o),
(238,378,o),
(254,358,cs),
(269,338,o),
(293,323,o),
(314,323,cs)
);
}
);
width = 589;
}
);
note = P;
unicode = 80;
},
{
glyphname = Q;
layers = (
{
layerId = m01;
shapes = (
{
closed = 1;
nodes = (
(399,724,o),
(471,703,o),
(529,664,cs),
(587,624,o),
(634,567,o),
(660,507,cs),
(686,447,o),
(691,383,o),
(668,330,cs),
(647,282,o),
(657,243,o),
(678,211,cs),
(688,194,o),
(700,179,o),
(713,165,cs),
(740,137,o),
(762,113,o),
(768,90,cs),
(774,67,o),
(753,48,o),
(713,29,cs),
(673,9,o),
(616,-6,o),
(547,-13,cs),
(478,-21,o),
(402,-16,o),
(326,7,cs),
(250,30,o),
(179,74,o),
(118,144,cs),
(57,214,o),
(14,309,o),
(15,378,cs),
(15,447,o),
(39,511,o),
(82,565,cs),
(125,619,o),
(178,660,o),
(238,687,cs),
(267,700,o),
(296,709,o),
(324,713,cs)
);
},
{
closed = 1;
nodes = (
(407,203,o),
(408,219,o),
(408,236,cs),
(407,252,o),
(403,271,o),
(416,283,cs),
(427,291,o),
(446,288,o),
(464,286,cs),
(482,284,o),
(498,283,o),
(503,294,cs),
(508,309,o),
(505,334,o),
(493,359,cs),
(481,383,o),
(461,407,o),
(434,419,cs),
(407,430,o),
(374,430,o),
(335,405,cs),
(283,373,o),
(266,338,o),
(268,307,cs),
(270,275,o),
(292,247,o),
(317,227,cs),
(341,207,o),
(370,196,o),
(386,199,cs)
);
}
);
width = 728;
}
);
note = Q;
unicode = 81;
},
{
glyphname = R;
layers = (
{
layerId = m01;
shapes = (
{
closed = 1;
nodes = (
(320,786,o),
(421,781,o),
(497,752,cs),
(573,723,o),
(626,667,o),
(655,596,cs),
(684,524,o),
(690,439,o),
(677,350,cs),
(669,302,o),
(687,263,o),
(709,228,cs),
(720,211,o),
(731,194,o),
(743,179,cs),
(767,147,o),
(781,115,o),
(775,80,cs),
(769,44,o),
(731,2,o),
(698,-4,cs),
(665,-10,o),
(628,-2,o),
(589,15,cs),
(569,23,o),
(550,31,o),
(531,40,cs),
(494,56,o),
(459,71,o),
(431,68,cs),
(410,66,o),
(390,60,o),
(369,49,cs),
(327,27,o),
(283,4,o),
(238,-6,cs),
(193,-16,o),
(157,-3,o),
(134,42,cs),
(110,86,o),
(90,154,o),
(75,238,cs),
(59,321,o),
(52,410,o),
(57,495,cs),
(62,580,o),
(83,653,o),
(120,702,cs),
(139,727,o),
(163,743,o),
(193,751,cs)
);
},
{
closed = 1;
nodes = (
(318,484,o),
(269,474,o),
(245,431,cs),
(224,394,o),
(221,361,o),
(227,334,cs),
(233,306,o),
(250,287,o),
(267,276,cs),
(294,261,o),
(316,267,o),
(335,282,cs),
(354,297,o),
(368,322,o),
(377,343,cs),
(402,403,o),
(392,451,o),
(355,468,cs)
);
}
);
width = 826;
}
);
note = R;
unicode = 82;
},
{
glyphname = S;
layers = (
{
layerId = m01;
shapes = (
{
closed = 1;
nodes = (
(601,620,o),
(587,600,o),
(573,578,cs),
(559,556,o),
(543,533,o),
(551,495,cs),
(558,457,o),
(586,403,o),
(661,320,cs),
(690,287,o),
(698,243,o),
(687,199,cs),
(675,154,o),
(646,108,o),
(605,72,cs),
(564,35,o),
(510,6,o),
(449,-3,cs),
(357,-18,o),
(288,-1,o),
(241,24,cs),
(193,48,o),
(169,82,o),
(169,99,cs),
(169,116,o),
(191,132,o),
(213,152,cs),
(235,172,o),
(256,197,o),
(256,236,cs),
(256,261,o),
(233,280,o),
(202,300,cs),
(151,332,ls),
(115,354,o),
(83,384,o),
(63,425,cs),
(43,466,o),
(43,546,o),
(75,618,cs),
(107,689,o),
(166,740,o),
(249,768,cs),
(290,781,o),
(337,788,o),
(388,788,cs),
(448,788,o),
(493,772,o),
(526,748,cs),
(559,723,o),
(579,690,o),
(590,655,cs)
);
}
);
width = 736;
}
);
note = S;
unicode = 83;
},
{
glyphname = T;
layers = (
{
layerId = m01;
shapes = (
{
closed = 1;
nodes = (
(491,720,o),
(572,698,o),
(635,662,cs),
(698,626,o),
(741,576,o),
(741,517,cs),
(741,480,o),
(715,451,o),
(680,427,cs),
(662,414,o),
(643,403,o),
(622,392,cs),
(581,370,o),
(544,347,o),
(521,322,cs),
(509,309,o),
(503,295,o),
(503,279,cs),
(503,231,o),
(502,160,o),
(484,101,cs),
(466,42,o),
(431,-4,o),
(366,-4,cs),
(323,-4,o),
(299,33,o),
(284,83,cs),
(276,108,o),
(270,135,o),
(266,166,cs),
(258,227,o),
(250,285,o),
(238,329,cs),
(226,373,o),
(196,391,o),
(156,404,cs),
(116,417,o),
(80,434,o),
(57,466,cs),
(45,482,o),
(39,506,o),
(39,537,cs),
(39,600,o),
(85,644,o),
(155,675,cs),
(225,706,o),
(318,720,o),
(414,720,cs)
);
}
);
width = 775;
}
);
note = T;
unicode = 84;
},
{
glyphname = U;
layers = (
{
layerId = m01;
shapes = (
{
closed = 1;
nodes = (
(280,720,o),
(299,697,o),
(313,669,cs),
(320,654,o),
(326,639,o),
(331,624,cs),
(342,592,o),
(353,565,o),
(370,548,cs),
(378,539,o),
(388,535,o),
(401,535,cs),
(426,535,o),
(443,554,o),
(460,581,cs),
(469,594,o),
(477,608,o),
(486,623,cs),
(503,652,o),
(529,679,o),
(563,694,cs),
(597,709,o),
(646,710,o),
(675,670,cs),
(703,630,o),
(720,565,o),
(725,484,cs),
(729,403,o),
(717,317,o),
(686,234,cs),
(655,151,o),
(604,83,o),
(529,38,cs),
(453,-7,o),
(319,-21,o),
(228,16,cs),
(136,53,o),
(79,126,o),
(54,219,cs),
(29,311,o),
(30,411,o),
(53,504,cs),
(76,596,o),
(115,668,o),
(167,707,cs),
(192,726,o),
(220,733,o),
(249,727,cs)
);
}
);
width = 772;
}
);
note = U;
unicode = 85;
},
{
glyphname = V;
layers = (
{
layerId = m01;
shapes = (
{
closed = 1;
nodes = (
(18,655,o),
(47,691,o),
(85,711,cs),
(123,730,o),
(168,733,o),
(193,726,cs),
(214,721,o),
(232,700,o),
(251,674,cs),
(280,633,ls),
(300,604,o),
(323,579,o),
(352,564,cs),
(366,556,o),
(382,552,o),
(400,552,cs),
(444,552,o),
(489,584,o),
(534,622,cs),
(557,641,o),
(579,660,o),
(601,680,cs),
(645,719,o),
(687,746,o),
(726,747,cs),
(765,748,o),
(795,715,o),
(793,662,cs),
(791,609,o),
(771,535,o),
(740,451,cs),
(708,366,o),
(668,279,o),
(624,200,cs),
(579,120,o),
(534,56,o),
(494,20,cs),
(453,-17,o),
(425,-17,o),
(385,12,cs),
(344,41,o),
(300,92,o),
(254,157,cs),
(208,221,o),
(164,292,o),
(125,363,cs),
(86,434,o),
(57,496,o),
(39,544,cs),
(30,568,o),
(24,586,o),
(23,598,cs)
);
}
);
width = 813;
}
);
note = V;
unicode = 86;
},
{
glyphname = W;
layers = (
{
layerId = m01;
shapes = (
{
closed = 1;
nodes = (
(133,769,o),
(170,776,o),
(207,760,cs),
(244,743,o),
(281,700,o),
(313,664,cs),
(329,646,o),
(344,631,o),
(357,618,cs),
(384,593,o),
(404,603,o),
(420,626,cs),
(428,637,o),
(436,649,o),
(444,661,cs),
(460,684,o),
(478,706,o),
(511,707,cs),
(551,708,o),
(580,693,o),
(602,671,cs),
(613,660,o),
(622,647,o),
(630,634,cs),
(646,607,o),
(659,585,o),
(673,570,cs),
(680,562,o),
(687,558,o),
(695,558,cs),
(704,558,o),
(714,566,o),
(725,582,cs),
(736,598,o),
(748,617,o),
(762,639,cs),
(790,682,o),
(824,730,o),
(864,753,cs),
(903,776,o),
(947,772,o),
(998,711,cs),
(1035,666,o),
(1047,595,o),
(1040,515,cs),
(1033,435,o),
(1008,345,o),
(975,262,cs),
(942,178,o),
(901,101,o),
(859,45,cs),
(817,-11,o),
(776,-45,o),
(744,-41,cs),
(711,-37,o),
(673,2,o),
(634,39,cs),
(594,76,o),
(553,113,o),
(510,113,cs),
(482,113,o),
(459,95,o),
(436,72,cs),
(412,48,o),
(389,22,o),
(362,6,cs),
(334,-11,o),
(301,-17,o),
(260,2,cs),
(189,34,o),
(138,105,o),
(105,190,cs),
(72,274,o),
(56,375,o),
(56,469,cs),
(56,563,o),
(72,649,o),
(101,706,cs)
);
}
);
width = 1090;
}
);
note = W;
unicode = 87;
},
{
glyphname = X;
layers = (
{
layerId = m01;
shapes = (
{
closed = 1;
nodes = (
(138,769,o),
(178,775,o),
(217,768,cs),
(256,761,o),
(290,740,o),
(322,721,cs),
(354,701,o),
(382,683,o),
(406,680,cs),
(430,677,o),
(467,693,o),
(508,711,cs),
(548,729,o),
(593,748,o),
(631,753,cs),
(669,758,o),
(701,750,o),
(717,711,cs),
(741,654,o),
(728,588,o),
(709,530,cs),
(699,501,o),
(689,474,o),
(679,449,cs),
(659,400,o),
(663,372,o),
(676,328,cs),
(683,305,o),
(690,282,o),
(698,258,cs),
(714,210,o),
(730,161,o),
(734,118,cs),
(738,75,o),
(729,39,o),
(694,16,cs),
(659,-7,o),
(621,-6,o),
(582,6,cs),
(543,17,o),
(505,39,o),
(470,59,cs),
(434,79,o),
(402,98,o),
(377,102,cs),
(352,106,o),
(320,87,o),
(286,64,cs),
(252,41,o),
(215,14,o),
(180,2,cs),
(144,-11,o),
(113,-10,o),
(86,25,cs),
(73,42,o),
(66,60,o),
(66,78,cs),
(66,113,o),
(82,151,o),
(105,191,cs),
(128,231,o),
(149,274,o),
(160,319,cs),
(171,364,o),
(160,409,o),
(141,452,cs),
(111,516,ls),
(90,559,o),
(70,600,o),
(63,637,cs),
(55,674,o),
(62,709,o),
(95,734,cs)
);
}
);
width = 787;
}
);
note = X;
unicode = 88;
},
{
glyphname = Y;
layers = (
{
layerId = m01;
shapes = (
{
closed = 1;
nodes = (
(82,776,o),
(124,782,o),
(170,772,cs),
(216,762,o),
(265,738,o),
(309,717,cs),
(352,696,o),
(389,677,o),
(406,677,cs),
(425,677,o),
(461,694,o),
(502,712,cs),
(543,730,o),
(591,750,o),
(632,761,cs),
(672,772,o),
(707,771,o),
(723,746,cs),
(750,703,o),
(743,652,o),
(720,599,cs),
(697,546,o),
(658,492,o),
(621,445,cs),
(602,421,o),
(585,399,o),
(569,380,cs),
(537,341,o),
(523,325,o),
(517,282,cs),
(514,260,o),
(511,237,o),
(509,212,cs),
(504,162,o),
(498,106,o),
(481,65,cs),
(464,24,o),
(435,-5,o),
(383,-4,cs),
(344,-4,o),
(322,24,o),
(309,64,cs),
(296,103,o),
(291,155,o),
(286,204,cs),
(281,253,o),
(275,301,o),
(262,330,cs),
(249,359,o),
(213,404,o),
(174,455,cs),
(135,506,o),
(94,562,o),
(67,614,cs),
(40,665,o),
(31,712,o),
(55,743,cs)
);
}
);
width = 781;
}
);
note = Y;
unicode = 89;
},
{
glyphname = Z;
layers = (
{
layerId = m01;
shapes = (
{
closed = 1;
nodes = (
(80,757,o),
(143,771,o),
(220,770,cs),
(297,769,o),
(390,753,o),
(467,731,cs),
(544,709,o),
(606,683,o),
(623,660,cs),
(640,639,o),
(629,598,o),
(607,551,cs),
(596,528,o),
(582,504,o),
(567,479,cs),
(535,429,o),
(506,381,o),
(487,344,cs),
(467,307,o),
(469,292,o),
(491,267,cs),
(513,242,o),
(545,213,o),
(580,182,cs),
(615,150,o),
(642,118,o),
(652,86,cs),
(662,54,o),
(648,20,o),
(589,5,cs),
(530,-10,o),
(448,-10,o),
(359,0,cs),
(270,10,o),
(189,28,o),
(133,54,cs),
(77,80,o),
(69,108,o),
(77,152,cs),
(84,195,o),
(104,246,o),
(130,296,cs),
(143,321,o),
(155,344,o),
(167,365,cs),
(196,421,ls),
(212,452,o),
(212,455,o),
(193,477,cs),
(183,488,o),
(171,500,o),
(158,515,cs),
(131,543,o),
(98,577,o),
(77,613,cs),
(56,648,o),
(45,685,o),
(60,717,cs)
);
}
);
width = 702;
}
);
note = Z;
unicode = 90;
},
{
glyphname = a;
layers = (
{
layerId = m01;
shapes = (
{
closed = 1;
nodes = (
(396,523,o),
(447,510,o),
(485,473,cs),
(523,436,o),
(548,373,o),
(548,273,cs),
(548,197,o),
(510,128,o),
(458,78,cs),
(405,28,o),
(338,-4,o),
(278,-4,cs),
(238,-4,o),
(177,19,o),
(126,51,cs),
(74,83,o),
(33,123,o),
(33,158,cs),
(33,195,o),
(49,220,o),
(70,238,cs),
(80,247,o),
(91,254,o),
(104,261,cs),
(128,273,o),
(150,286,o),
(164,299,cs),
(171,305,o),
(174,313,o),
(174,322,cs),
(174,350,o),
(161,368,o),
(147,385,cs),
(133,402,o),
(118,419,o),
(118,443,cs),
(118,468,o),
(151,488,o),
(196,502,cs),
(241,516,o),
(299,523,o),
(348,523,cs)
);
},
{
closed = 1;
nodes = (
(311,336,o),
(291,332,o),
(272,323,cs),
(252,314,o),
(235,298,o),
(228,279,cs),
(225,269,o),
(223,259,o),
(223,249,cs),
(223,229,o),
(229,212,o),
(241,200,cs),
(252,187,o),
(269,180,o),
(286,190,cs),
(303,200,o),
(320,219,o),
(332,244,cs),
(344,268,o),
(349,291,o),
(343,311,cs),
(340,320,o),
(333,327,o),
(323,331,cs)
);
}
);
width = 566;
}
);
note = a;
unicode = 97;
},
{
glyphname = b;
layers = (
{
layerId = m01;
shapes = (
{
closed = 1;
nodes = (
(236,691,o),
(257,655,o),
(271,610,cs),
(278,587,o),
(283,564,o),
(288,539,cs),
(293,514,o),
(298,492,o),
(303,473,cs),
(310,448,o),
(337,436,o),
(372,425,cs),
(407,414,o),
(446,404,o),
(478,384,cs),
(510,363,o),
(533,331,o),
(533,276,cs),
(533,193,o),
(488,120,o),
(432,68,cs),
(375,16,o),
(307,-16,o),
(260,-16,cs),
(203,-16,o),
(146,15,o),
(104,72,cs),
(62,128,o),
(33,212,o),
(33,317,cs),
(33,436,o),
(59,529,o),
(93,593,cs),
(127,657,o),
(170,691,o),
(203,691,cs)
);
},
{
closed = 1;
nodes = (
(208,395,o),
(193,385,o),
(182,369,cs),
(171,353,o),
(163,332,o),
(163,311,cs),
(163,271,o),
(191,249,o),
(220,249,cs),
(248,248,o),
(279,267,o),
(283,311,cs),
(286,332,o),
(278,353,o),
(266,369,cs),
(254,385,o),
(239,395,o),
(223,395,cs)
);
}
);
width = 551;
}
);
note = b;
unicode = 98;
},
{
glyphname = c;
layers = (
{
layerId = m01;
shapes = (
{
closed = 1;
nodes = (
(398,479,o),
(382,456,o),
(367,428,cs),
(351,399,o),
(337,365,o),
(353,324,cs),
(364,297,o),
(386,281,o),
(414,269,cs),
(427,262,o),
(441,257,o),
(455,253,cs),
(483,244,o),
(509,233,o),
(525,218,cs),
(533,210,o),
(538,200,o),
(539,188,cs),
(544,132,o),
(515,85,o),
(464,52,cs),
(413,19,o),
(343,0,o),
(264,0,cs),
(211,0,o),
(151,22,o),
(105,64,cs),
(59,106,o),
(25,169,o),
(25,252,cs),
(25,321,o),
(57,382,o),
(104,427,cs),
(151,472,o),
(210,505,o),
(263,518,cs),
(315,531,o),
(363,527,o),
(383,499,cs)
);
}
);
width = 555;
}
);
note = c;
unicode = 99;
},
{
glyphname = d;
layers = (
{
layerId = m01;
shapes = (
{
closed = 1;
nodes = (
(552,220,o),
(522,132,o),
(478,73,cs),
(433,14,o),
(373,-18,o),
(313,-18,cs),
(264,-18,o),
(192,16,o),
(133,70,cs),
(73,124,o),
(26,201,o),
(26,286,cs),
(26,343,o),
(51,377,o),
(84,398,cs),
(117,419,o),
(160,430,o),
(196,441,cs),
(231,452,o),
(261,464,o),
(268,491,cs),
(274,510,o),
(280,533,o),
(285,560,cs),
(295,612,o),
(309,661,o),
(331,694,cs),
(342,710,o),
(356,718,o),
(373,718,cs),
(409,718,o),
(453,682,o),
(489,615,cs),
(525,548,o),
(552,452,o),
(552,329,cs)
);
},
{
closed = 1;
nodes = (
(284,290,o),
(319,267,o),
(352,264,cs),
(384,260,o),
(414,279,o),
(410,324,cs),
(409,344,o),
(398,364,o),
(383,379,cs),
(368,394,o),
(351,403,o),
(336,403,cs),
(321,403,o),
(305,394,o),
(293,381,cs),
(281,368,o),
(273,349,o),
(277,329,cs)
);
}
);
width = 574;
}
);
note = d;
unicode = 100;
},
{
glyphname = e;
layers = (
{
layerId = m01;
shapes = (
{
closed = 1;
nodes = (
(26,324,o),
(64,385,o),
(110,433,cs),
(156,480,o),
(210,512,o),
(253,513,cs),
(278,513,o),
(317,503,o),
(358,486,cs),
(398,469,o),
(441,445,o),
(473,418,cs),
(505,391,o),
(527,363,o),
(527,336,cs),
(527,296,o),
(505,273,o),
(482,255,cs),
(459,237,o),
(437,221,o),
(436,197,cs),
(435,173,o),
(452,157,o),
(472,142,cs),
(491,127,o),
(510,113,o),
(510,90,cs),
(510,67,o),
(481,41,o),
(437,21,cs),
(393,1,o),
(335,-14,o),
(278,-14,cs),
(221,-14,o),
(153,27,o),
(101,82,cs),
(49,137,o),
(14,205,o),
(19,261,cs)
);
},
{
closed = 1;
nodes = (
(340,299,o),
(320,318,o),
(297,329,cs),
(273,340,o),
(246,341,o),
(227,321,cs),
(216,309,o),
(221,275,o),
(237,245,cs),
(253,215,o),
(279,190,o),
(311,198,cs),
(343,207,o),
(359,244,o),
(347,280,cs)
);
}
);
width = 545;
}
);
note = e;
unicode = 101;
},
{
glyphname = f;
layers = (
{
layerId = m01;
shapes = (
{
closed = 1;
nodes = (
(31,379,o),
(47,461,o),
(75,530,cs),
(102,598,o),
(141,654,o),
(189,665,cs),
(222,673,o),
(267,665,o),
(312,652,cs),
(356,639,o),
(401,617,o),
(434,596,cs),
(467,575,o),
(489,554,o),
(489,539,cs),
(489,518,o),
(464,497,o),
(440,477,cs),
(416,457,o),
(391,438,o),
(391,419,cs),
(391,399,o),
(413,389,o),
(435,376,cs),
(457,363,o),
(478,349,o),
(478,321,cs),
(478,293,o),
(452,276,o),
(421,260,cs),
(406,252,o),
(391,245,o),
(376,238,cs),
(346,224,o),
(334,211,o),
(331,185,cs),
(329,172,o),
(327,157,o),
(326,141,cs),
(322,108,o),
(318,72,o),
(307,44,cs),
(295,15,o),
(274,-5,o),
(238,-5,cs),
(193,-5,o),
(141,47,o),
(101,113,cs),
(60,179,o),
(31,259,o),
(31,318,cs)
);
}
);
width = 528;
}
);
note = f;
unicode = 102;
},
{
glyphname = g;
layers = (
{
layerId = m01;
shapes = (
{
closed = 1;
nodes = (
(368,490,o),
(415,467,o),
(456,434,cs),
(496,401,o),
(531,356,o),
(556,309,cs),
(580,262,o),
(594,215,o),
(594,178,cs),
(594,141,o),
(574,89,o),
(543,37,cs),
(512,-15,o),
(473,-67,o),
(436,-106,cs),
(399,-145,o),
(363,-171,o),
(342,-171,cs),
(291,-171,o),
(226,-158,o),
(172,-141,cs),
(145,-132,o),
(122,-123,o),
(104,-112,cs),
(85,-101,o),
(76,-91,o),
(76,-81,cs),
(76,-61,o),
(94,-41,o),
(113,-23,cs),
(132,-5,o),
(150,11,o),
(150,24,cs),
(150,33,o),
(135,52,o),
(116,74,cs),
(96,96,o),
(71,123,o),
(52,150,cs),
(32,177,o),
(17,204,o),
(17,227,cs),
(17,250,o),
(34,286,o),
(63,326,cs),
(91,365,o),
(131,405,o),
(176,437,cs),
(220,468,o),
(271,490,o),
(319,490,cs)
);
},
{
closed = 1;
nodes = (
(330,55,o),
(361,80,o),
(377,112,cs),
(393,144,o),
(393,183,o),
(366,210,cs),
(342,234,o),
(307,242,o),
(276,234,cs),
(244,225,o),
(218,199,o),
(213,151,cs),
(208,95,o),
(247,59,o),
(294,56,cs)
);
}
);
width = 620;
}
);
note = g;
unicode = 103;
},
{
glyphname = h;
layers = (
{
layerId = m01;
shapes = (
{
closed = 1;
nodes = (
(252,704,o),
(271,680,o),
(287,648,cs),
(295,631,o),
(302,613,o),
(309,593,cs),
(321,553,o),
(334,514,o),
(349,483,cs),
(364,452,o),
(383,438,o),
(431,418,cs),
(478,397,o),
(528,372,o),
(565,341,cs),
(601,309,o),
(602,274,o),
(599,234,cs),
(595,193,o),
(586,147,o),
(572,104,cs),
(558,60,o),
(541,23,o),
(523,2,cs),
(514,-9,o),
(504,-14,o),
(495,-14,cs),
(478,-14,o),
(459,6,o),
(440,34,cs),
(431,47,o),
(422,62,o),
(413,78,cs),
(396,109,o),
(379,138,o),
(363,156,cs),
(355,165,o),
(348,169,o),
(341,169,cs),
(326,169,o),
(313,150,o),
(298,123,cs),
(275,81,ls),
(259,51,o),
(243,22,o),
(224,5,cs),
(214,-4,o),
(204,-8,o),
(193,-8,cs),
(172,-8,o),
(147,19,o),
(124,59,cs),
(100,99,o),
(79,152,o),
(64,205,cs),
(48,258,o),
(38,310,o),
(38,349,cs),
(38,386,o),
(52,439,o),
(73,492,cs),
(93,544,o),
(121,597,o),
(149,637,cs),
(177,677,o),
(206,704,o),
(227,704,cs)
);
}
);
width = 640;
}
);
note = h;
unicode = 104;
},
{
glyphname = i;
layers = (
{
layerId = m01;
shapes = (
{
closed = 1;
nodes = (
(138,654,o),
(159,673,o),
(186,683,cs),
(213,693,o),
(245,696,o),
(270,686,cs),
(294,676,o),
(313,651,o),
(310,607,cs),
(309,579,o),
(292,555,o),
(271,540,cs),
(250,525,o),
(224,517,o),
(201,521,cs),
(178,525,o),
(157,536,o),
(145,556,cs),
(132,575,o),
(126,602,o),
(134,637,cs)
);
},
{
closed = 1;
nodes = (
(176,469,o),
(129,451,o),
(91,427,cs),
(53,402,o),
(25,369,o),
(25,340,cs),
(25,311,o),
(41,288,o),
(59,266,cs),
(68,255,o),
(77,244,o),
(87,234,cs),
(107,213,o),
(116,198,o),
(134,152,cs),
(152,106,o),
(176,55,o),
(202,20,cs),
(215,2,o),
(228,-7,o),
(242,-7,cs),
(261,-7,o),
(284,23,o),
(306,65,cs),
(328,107,o),
(349,162,o),
(365,212,cs),
(381,262,o),
(392,307,o),
(392,330,cs),
(392,365,o),
(369,400,o),
(335,426,cs),
(301,452,o),
(257,469,o),
(217,469,cs)
);
}
);
width = 431;
}
);
note = i;
unicode = 105;
},
{
glyphname = j;
layers = (
{
layerId = m01;
shapes = (
{
closed = 1;
nodes = (
(175,638,o),
(188,662,o),
(208,678,cs),
(227,694,o),
(251,700,o),
(275,696,cs),
(299,692,o),
(321,676,o),
(333,654,cs),
(345,632,o),
(348,605,o),
(337,578,cs),
(316,529,o),
(276,517,o),
(241,527,cs),
(205,537,o),
(175,569,o),
(175,609,cs)
);
},
{
closed = 1;
nodes = (
(269,466,o),
(252,442,o),
(237,407,cs),
(230,389,o),
(223,369,o),
(216,347,cs),
(203,302,o),
(186,257,o),
(163,218,cs),
(152,198,o),
(137,182,o),
(120,170,cs),
(69,134,o),
(40,112,o),
(24,96,cs),
(8,79,o),
(4,67,o),
(3,54,cs),
(2,47,o),
(9,37,o),
(23,22,cs),
(50,-7,o),
(98,-41,o),
(161,-66,cs),
(192,-79,o),
(225,-87,o),
(259,-90,cs),
(294,-94,o),
(328,-73,o),
(358,-43,cs),
(388,-13,o),
(413,28,o),
(433,65,cs),
(452,102,o),
(463,136,o),
(466,155,cs),
(469,174,o),
(458,213,o),
(441,258,cs),
(424,302,o),
(401,352,o),
(375,392,cs),
(349,432,o),
(321,460,o),
(297,463,cs)
);
}
);
width = 522;
}
);
note = j;
unicode = 106;
},
{
glyphname = k;
layers = (
{
layerId = m01;
shapes = (
{
closed = 1;
nodes = (
(228,697,o),
(246,666,o),
(256,624,cs),
(261,603,o),
(264,580,o),
(267,555,cs),
(271,505,o),
(276,457,o),
(285,424,cs),
(293,391,o),
(309,384,o),
(328,392,cs),
(347,400,o),
(370,414,o),
(394,428,cs),
(418,442,o),
(443,450,o),
(464,445,cs),
(484,440,o),
(498,418,o),
(494,396,cs),
(492,385,o),
(489,371,o),
(485,356,cs),
(476,325,o),
(467,287,o),
(468,240,cs),
(469,219,o),
(474,197,o),
(485,174,cs),
(506,127,o),
(527,83,o),
(528,48,cs),
(529,13,o),
(487,-5,o),
(456,7,cs),
(424,19,o),
(392,42,o),
(361,63,cs),
(329,83,o),
(294,87,o),
(271,80,cs),
(248,72,o),
(234,57,o),
(222,41,cs),
(210,24,o),
(196,10,o),
(176,4,cs),
(155,-2,o),
(113,5,o),
(89,30,cs),
(64,55,o),
(49,91,o),
(41,132,cs),
(33,173,o),
(31,214,o),
(32,249,cs),
(33,284,o),
(34,304,o),
(41,358,cs),
(48,412,o),
(58,475,o),
(75,537,cs),
(91,599,o),
(113,650,o),
(144,680,cs),
(159,695,o),
(177,701,o),
(196,700,cs)
);
}
);
width = 601;
}
);
note = k;
unicode = 107;
},
{
glyphname = l;
layers = (
{
layerId = m01;
shapes = (
{
closed = 1;
nodes = (
(290,261,o),
(322,240,o),
(354,222,cs),
(386,204,o),
(418,188,o),
(425,157,cs),
(430,133,o),
(416,107,o),
(390,83,cs),
(364,58,o),
(328,36,o),
(292,21,cs),
(255,6,o),
(217,-1,o),
(188,4,cs),
(152,11,o),
(120,37,o),
(94,77,cs),
(68,116,o),
(48,168,o),
(39,227,cs),
(32,266,o),
(31,332,o),
(38,404,cs),
(45,475,o),
(57,551,o),
(81,608,cs),
(104,665,o),
(137,704,o),
(181,700,cs),
(228,696,o),
(245,641,o),
(254,563,cs),
(259,524,o),
(262,481,o),
(265,434,cs),
(268,387,o),
(273,342,o),
(282,298,cs)
);
}
);
width = 444;
}
);
note = l;
unicode = 108;
},
{
glyphname = m;
layers = (
{
layerId = m01;
shapes = (
{
closed = 1;
nodes = (
(137,540,o),
(155,528,o),
(175,512,cs),
(195,496,o),
(216,475,o),
(248,470,cs),
(296,462,o),
(366,466,o),
(435,470,cs),
(504,474,o),
(573,479,o),
(617,472,cs),
(657,467,o),
(696,429,o),
(725,381,cs),
(754,333,o),
(773,273,o),
(772,220,cs),
(771,163,o),
(761,107,o),
(742,66,cs),
(722,25,o),
(695,-2,o),
(659,-2,cs),
(635,-2,o),
(619,15,o),
(608,36,cs),
(602,47,o),
(597,58,o),
(593,71,cs),
(584,96,o),
(575,119,o),
(564,135,cs),
(552,150,o),
(532,151,o),
(520,136,cs),
(507,120,o),
(498,98,o),
(488,72,cs),
(478,46,o),
(467,22,o),
(452,8,cs),
(436,-6,o),
(412,-5,o),
(395,12,cs),
(378,28,o),
(362,52,o),
(350,80,cs),
(337,107,o),
(324,131,o),
(312,147,c),
(305,154,o),
(298,158,o),
(291,158,cs),
(276,158,o),
(263,138,o),
(250,114,cs),
(243,101,o),
(237,88,o),
(230,73,cs),
(216,44,o),
(200,20,o),
(183,6,cs),
(174,-1,o),
(165,-4,o),
(155,-1,cs),
(110,10,o),
(75,69,o),
(55,143,cs),
(34,217,o),
(27,306,o),
(36,382,cs),
(44,457,o),
(68,516,o),
(109,531,cs)
);
}
);
width = 797;
}
);
note = m;
unicode = 109;
},
{
glyphname = n;
layers = (
{
layerId = m01;
shapes = (
{
closed = 1;
nodes = (
(130,481,o),
(154,470,o),
(177,456,cs),
(210,435,ls),
(231,421,o),
(258,414,o),
(290,431,cs),
(321,447,o),
(357,468,o),
(402,480,cs),
(446,491,o),
(499,477,o),
(526,443,cs),
(553,409,o),
(569,360,o),
(574,301,cs),
(579,242,o),
(576,183,o),
(565,127,cs),
(553,71,o),
(536,27,o),
(513,2,cs),
(501,-11,o),
(488,-17,o),
(474,-17,cs),
(446,-17,o),
(422,18,o),
(398,52,cs),
(374,86,o),
(349,119,o),
(321,119,cs),
(293,119,o),
(271,88,o),
(247,57,cs),
(223,25,o),
(197,-6,o),
(161,-6,c),
(108,13,o),
(70,68,o),
(48,134,cs),
(26,200,o),
(20,277,o),
(29,341,cs),
(37,405,o),
(62,457,o),
(102,470,cs)
);
}
);
width = 583;
}
);
note = n;
unicode = 110;
},
{
glyphname = o;
layers = (
{
layerId = m01;
shapes = (
{
closed = 1;
nodes = (
(231,484,o),
(292,472,o),
(344,445,cs),
(395,417,o),
(437,373,o),
(465,324,cs),
(492,275,o),
(503,218,o),
(492,163,cs),
(483,118,o),
(449,81,o),
(405,53,cs),
(361,25,o),
(308,5,o),
(258,-4,cs),
(208,-13,o),
(161,-13,o),
(133,-2,cs),
(72,21,o),
(37,78,o),
(25,146,cs),
(13,213,o),
(24,290,o),
(50,352,cs),
(76,414,o),
(118,463,o),
(170,472,cs)
);
},
{
closed = 1;
nodes = (
(236,156,o),
(261,164,o),
(276,181,cs),
(291,197,o),
(294,222,o),
(279,257,cs),
(270,278,o),
(249,291,o),
(226,292,cs),
(203,293,o),
(177,283,o),
(160,259,cs),
(145,239,o),
(144,214,o),
(153,193,cs),
(161,172,o),
(180,156,o),
(205,156,cs)
);
}
);
width = 518;
}
);
note = o;
unicode = 111;
},
{
glyphname = p;
layers = (
{
layerId = m01;
shapes = (
{
closed = 1;
nodes = (
(164,497,o),
(228,507,o),
(287,499,cs),
(346,490,o),
(398,463,o),
(439,432,cs),
(479,400,o),
(509,364,o),
(518,335,cs),
(533,291,o),
(503,235,o),
(461,184,cs),
(419,133,o),
(366,88,o),
(337,68,cs),
(317,55,o),
(305,21,o),
(294,-15,cs),
(282,-51,o),
(272,-90,o),
(254,-114,cs),
(236,-139,o),
(212,-149,o),
(173,-128,cs),
(121,-100,o),
(81,-34,o),
(56,43,cs),
(31,120,o),
(21,210,o),
(28,287,cs),
(35,364,o),
(59,429,o),
(103,457,cs)
);
},
{
closed = 1;
nodes = (
(202,194,o),
(227,173,o),
(256,168,cs),
(285,163,o),
(319,171,o),
(331,199,cs),
(339,218,o),
(335,245,o),
(325,267,cs),
(315,289,o),
(298,306,o),
(281,309,cs),
(264,312,o),
(247,301,o),
(233,285,cs),
(219,268,o),
(209,245,o),
(206,225,cs)
);
}
);
width = 549;
}
);
note = p;
unicode = 112;
},
{
glyphname = q;
layers = (
{
layerId = m01;
shapes = (
{
closed = 1;
nodes = (
(304,521,o),
(362,507,o),
(407,480,cs),
(451,452,o),
(483,411,o),
(504,371,cs),
(525,331,o),
(526,289,o),
(524,238,cs),
(522,186,o),
(517,128,o),
(529,53,cs),
(537,1,o),
(520,-40,o),
(492,-72,cs),
(464,-104,o),
(425,-125,o),
(390,-137,cs),
(354,-149,o),
(322,-153,o),
(309,-146,cs),
(292,-138,o),
(289,-101,o),
(287,-60,cs),
(285,-20,o),
(284,24,o),
(269,47,cs),
(260,63,o),
(233,75,o),
(201,89,cs),
(169,103,o),
(130,119,o),
(97,140,cs),
(64,160,o),
(37,188,o),
(25,224,cs),
(12,269,o),
(22,330,o),
(58,386,cs),
(93,441,o),
(151,488,o),
(232,505,cs)
);
},
{
closed = 1;
nodes = (
(266,155,o),
(300,145,o),
(332,149,cs),
(363,153,o),
(390,169,o),
(390,205,cs),
(390,236,o),
(372,258,o),
(348,271,cs),
(323,283,o),
(292,288,o),
(269,281,cs),
(249,276,o),
(236,258,o),
(232,237,cs),
(228,216,o),
(233,192,o),
(250,172,cs)
);
}
);
width = 560;
}
);
note = q;
unicode = 113;
},
{
glyphname = r;
layers = (
{
layerId = m01;
shapes = (
{
closed = 1;
nodes = (
(52,503,o),
(84,522,o),
(125,530,cs),
(166,537,o),
(218,530,o),
(270,511,cs),
(292,503,o),
(316,498,o),
(341,497,cs),
(392,494,o),
(439,493,o),
(472,483,cs),
(504,473,o),
(514,432,o),
(494,401,cs),
(473,369,o),
(437,340,o),
(395,312,cs),
(353,283,o),
(319,253,o),
(300,212,cs),
(280,171,o),
(269,126,o),
(261,85,cs),
(253,44,o),
(244,10,o),
(230,-7,cs),
(223,-16,o),
(213,-19,o),
(200,-16,cs),
(165,-9,o),
(132,35,o),
(104,95,cs),
(76,155,o),
(53,231,o),
(41,300,cs),
(29,369,o),
(27,432,o),
(39,467,cs)
);
}
);
width = 528;
}
);
note = r;
unicode = 114;
},
{
glyphname = s;
layers = (
{
layerId = m01;
shapes = (
{
closed = 1;
nodes = (
(12,39,o),
(15,61,o),
(27,88,cs),
(39,115,o),
(60,145,o),
(78,172,cs),
(96,199,o),
(110,223,o),
(109,236,cs),
(105,269,o),
(81,298,o),
(59,326,cs),
(37,353,o),
(16,380,o),
(20,408,cs),
(24,441,o),
(59,468,o),
(103,486,cs),
(147,504,o),
(202,514,o),
(248,515,cs),
(294,516,o),
(331,509,o),
(340,492,cs),
(352,468,o),
(334,444,o),
(315,418,cs),
(296,392,o),
(277,365,o),
(288,334,cs),
(293,321,o),
(304,310,o),
(319,302,cs),
(350,285,o),
(385,266,o),
(410,235,cs),
(435,203,o),
(433,150,o),
(406,114,cs),
(379,78,o),
(336,49,o),
(281,27,cs),
(226,5,o),
(167,-4,o),
(111,3,cs),
(82,6,o),
(56,15,o),
(32,28,cs)
);
}
);
width = 443;
}
);
note = s;
unicode = 115;
},
{
glyphname = t;
layers = (
{
layerId = m01;
shapes = (
{
closed = 1;
nodes = (
(289,644,o),
(309,613,o),
(326,577,cs),
(334,559,o),
(342,541,o),
(349,522,cs),
(364,484,o),
(380,460,o),
(409,451,cs),
(424,446,o),
(438,442,o),
(451,439,cs),
(478,431,o),
(499,423,o),
(499,394,cs),
(499,375,o),
(486,362,o),
(468,349,cs),
(459,342,o),
(449,336,o),
(438,329,cs),
(417,316,o),
(397,300,o),
(382,280,cs),
(367,259,o),
(356,222,o),
(377,188,cs),
(387,171,o),
(399,155,o),
(412,140,cs),
(438,110,o),
(462,83,o),
(454,59,cs),
(443,27,o),
(394,2,o),
(339,-10,cs),
(284,-23,o),
(225,-23,o),
(193,0,cs),
(172,15,o),
(159,47,o),
(148,85,cs),
(137,123,o),
(131,165,o),
(125,202,cs),
(119,238,o),
(111,269,o),
(102,281,cs),
(95,290,o),
(85,299,o),
(74,308,cs),
(50,324,o),
(28,342,o),
(16,365,cs),
(4,388,o),
(12,420,o),
(36,433,cs),
(48,440,o),
(62,446,o),
(77,451,cs),
(107,462,o),
(140,473,o),
(160,494,cs),
(164,498,o),
(169,508,o),
(174,524,cs),
(185,555,o),
(200,591,o),
(221,619,cs),
(231,633,o),
(243,640,o),
(257,641,cs)
);
}
);
width = 514;
}
);
note = t;
unicode = 116;
},
{
glyphname = u;
layers = (
{
layerId = m01;
shapes = (
{
closed = 1;
nodes = (
(159,516,o),
(170,496,o),
(178,471,cs),
(181,458,o),
(184,445,o),
(186,430,cs),
(189,400,o),
(196,372,o),
(210,352,cs),
(224,332,o),
(260,324,o),
(284,340,cs),
(307,356,o),
(325,385,o),
(341,418,cs),
(357,450,o),
(374,480,o),
(397,497,cs),
(420,514,o),
(452,511,o),
(476,483,cs),
(500,454,o),
(521,409,o),
(536,354,cs),
(551,298,o),
(558,240,o),
(557,187,cs),
(556,134,o),
(549,103,o),
(517,77,cs),
(485,51,o),
(435,28,o),
(376,13,cs),
(317,-3,o),
(256,-8,o),
(198,1,cs),
(140,9,o),
(93,28,o),
(63,87,cs),
(33,146,o),
(20,222,o),
(22,302,cs),
(24,381,o),
(40,448,o),
(72,489,cs),
(88,509,o),
(108,518,o),
(131,517,cs)
);
}
);
width = 574;
}
);
note = u;
unicode = 117;
},
{
glyphname = v;
layers = (
{
layerId = m01;
shapes = (
{
closed = 1;
nodes = (
(54,523,o),
(82,514,o),
(110,497,cs),
(123,488,o),
(137,478,o),
(150,467,cs),
(177,443,o),
(201,422,o),
(224,407,cs),
(235,400,o),
(246,396,o),
(255,396,cs),
(275,396,o),
(306,412,o),
(342,432,cs),
(397,463,ls),
(434,484,o),
(470,500,o),
(498,504,cs),
(526,507,o),
(542,493,o),
(541,453,cs),
(540,413,o),
(526,358,o),
(502,295,cs),
(477,231,o),
(444,168,o),
(406,112,cs),
(368,56,o),
(326,14,o),
(283,-5,cs),
(240,-24,o),
(194,-13,o),
(150,42,cs),
(105,97,o),
(68,174,o),
(43,258,cs),
(18,341,o),
(6,415,o),
(9,466,cs),
(10,491,o),
(16,506,o),
(27,511,cs)
);
}
);
width = 562;
}
);
note = v;
unicode = 118;
},
{
glyphname = w;
layers = (
{
layerId = m01;
shapes = (
{
closed = 1;
nodes = (
(77,488,o),
(119,466,o),
(156,439,cs),
(174,426,o),
(191,413,o),
(206,400,cs),
(221,387,o),
(233,380,o),
(243,380,cs),
(263,380,o),
(286,397,o),
(308,414,cs),
(330,430,o),
(352,447,o),
(372,447,cs),
(392,447,o),
(410,435,o),
(428,423,cs),
(446,410,o),
(464,396,o),
(488,393,cs),
(507,390,o),
(529,403,o),
(553,420,cs),
(565,428,o),
(578,437,o),
(591,447,cs),
(617,467,o),
(643,483,o),
(670,491,cs),
(697,499,o),
(737,496,o),
(753,445,cs),
(768,393,o),
(762,320,o),
(742,240,cs),
(721,160,o),
(690,89,o),
(655,41,cs),
(620,-7,o),
(578,-9,o),
(542,-5,cs),
(506,-2,o),
(479,8,o),
(456,16,cs),
(444,20,o),
(432,22,o),
(420,22,cs),
(408,22,o),
(397,20,o),
(387,16,cs),
(367,8,o),
(344,-1,o),
(313,-5,cs),
(282,-9,o),
(231,-7,o),
(182,40,cs),
(133,87,o),
(90,154,o),
(58,230,cs),
(26,305,o),
(10,374,o),
(12,423,cs),
(13,447,o),
(20,462,o),
(33,468,cs)
);
}
);
width = 782;
}
);
note = w;
unicode = 119;
},
{
glyphname = x;
layers = (
{
layerId = m01;
shapes = (
{
closed = 1;
nodes = (
(65,517,o),
(105,508,o),
(147,490,cs),
(168,481,o),
(189,471,o),
(211,461,cs),
(254,440,o),
(288,435,o),
(325,453,cs),
(381,480,ls),
(418,499,o),
(456,515,o),
(491,499,cs),
(515,488,o),
(515,457,o),
(508,416,cs),
(504,395,o),
(499,373,o),
(494,348,cs),
(489,323,o),
(485,297,o),
(483,272,cs),
(482,257,o),
(489,224,o),
(498,188,cs),
(506,151,o),
(516,110,o),
(520,76,cs),
(523,42,o),
(522,15,o),
(506,8,cs),
(483,-3,o),
(438,12,o),
(391,29,cs),
(367,38,o),
(344,46,o),
(323,55,cs),
(301,63,o),
(284,67,o),
(271,67,cs),
(259,67,o),
(244,62,o),
(225,53,cs),
(188,33,o),
(145,12,o),
(106,2,cs),
(67,-8,o),
(43,11,o),
(42,36,cs),
(41,61,o),
(49,94,o),
(64,129,cs),
(71,146,o),
(79,163,o),
(86,178,cs),
(100,209,o),
(112,235,o),
(112,244,cs),
(112,249,o),
(109,257,o),
(103,269,cs),
(97,280,o),
(90,294,o),
(81,309,cs),
(64,339,o),
(45,375,o),
(34,408,cs),
(23,441,o),
(22,472,o),
(41,492,cs)
);
}
);
width = 562;
}
);
note = x;
unicode = 120;
},
{
glyphname = y;
layers = (
{
layerId = m01;
shapes = (
{
closed = 1;
nodes = (
(143,537,o),
(165,529,o),
(189,507,cs),
(201,496,o),
(213,482,o),
(226,467,cs),
(250,435,o),
(274,405,o),
(295,385,cs),
(316,365,o),
(341,365,o),
(366,393,cs),
(379,407,o),
(391,422,o),
(403,439,cs),
(427,472,o),
(453,504,o),
(485,503,cs),
(501,503,o),
(517,490,o),
(533,464,cs),
(564,412,o),
(585,328,o),
(589,225,cs),
(592,122,o),
(576,33,o),
(519,-16,cs),
(462,-65,o),
(382,-98,o),
(295,-114,cs),
(251,-123,o),
(210,-127,o),
(173,-127,cs),
(98,-127,o),
(41,-113,o),
(34,-82,cs),
(26,-49,o),
(40,-20,o),
(62,5,cs),
(73,17,o),
(85,29,o),
(99,40,cs),
(127,63,o),
(152,85,o),
(168,107,cs),
(183,129,o),
(182,153,o),
(164,187,cs),
(134,242,ls),
(112,282,o),
(88,328,o),
(81,375,cs),
(73,422,o),
(82,471,o),
(123,516,cs)
);
}
);
width = 622;
}
);
note = y;
unicode = 121;
},
{
glyphname = z;
layers = (
{
layerId = m01;
shapes = (
{
closed = 1;
nodes = (
(52,520,o),
(85,533,o),
(131,540,cs),
(177,547,o),
(235,548,o),
(292,543,cs),
(349,538,o),
(406,526,o),
(449,509,cs),
(492,492,o),
(521,469,o),
(522,440,cs),
(523,403,o),
(503,368,o),
(475,337,cs),
(461,322,o),
(446,307,o),
(430,292,cs),
(398,263,o),
(370,236,o),
(355,209,cs),
(348,195,o),
(346,181,o),
(349,167,cs),
(352,156,o),
(376,147,o),
(405,137,cs),
(434,127,o),
(470,115,o),
(495,100,cs),
(519,84,o),
(534,65,o),
(525,38,cs),
(514,10,o),
(460,-6,o),
(390,-10,cs),
(320,-15,o),
(235,-11,o),
(167,1,cs),
(133,6,o),
(104,13,o),
(81,22,cs),
(34,39,o),
(35,68,o),
(47,106,cs),
(58,144,o),
(80,182,o),
(107,217,cs),
(145,266,ls),
(157,281,o),
(167,294,o),
(175,305,cs),
(191,327,o),
(190,334,o),
(173,346,cs),
(142,367,ls),
(117,382,o),
(87,400,o),
(67,422,cs),
(46,444,o),
(34,469,o),
(45,500,cs)
);
}
);
width = 558;
}
);
note = z;
unicode = 122;
},
{
glyphname = zero;
layers = (
{
layerId = m01;
shapes = (
{
closed = 1;
nodes = (
(512,771,o),
(592,700,o),
(644,608,cs),
(696,516,o),
(719,402,o),
(708,298,cs),
(697,193,o),
(654,97,o),
(573,40,cs),
(498,-12,o),
(416,-26,o),
(340,-12,cs),
(264,2,o),
(194,45,o),
(142,106,cs),
(89,167,o),
(54,249,o),
(49,338,cs),
(46,394,o),
(68,465,o),
(104,535,cs),
(140,605,o),
(192,673,o),
(246,722,cs),
(300,770,o),
(356,799,o),
(407,790,cs)
);
},
{
closed = 1;
nodes = (
(313,473,o),
(285,446,o),
(277,415,cs),
(269,384,o),
(283,349,o),
(324,318,cs),
(365,287,o),
(398,296,o),
(419,317,cs),
(440,337,o),
(451,371,o),
(450,391,cs),
(449,411,o),
(440,439,o),
(424,460,cs),
(408,480,o),
(385,494,o),
(354,485,cs)
);
}
);
width = 758;
}
);
note = zero;
unicode = 48;
},
{
glyphname = one;
layers = (
{
layerId = m01;
shapes = (
{
closed = 1;
nodes = (
(342,778,o),
(381,755,o),
(406,713,cs),
(431,671,o),
(442,611,o),
(442,528,cs),
(442,472,o),
(430,393,o),
(411,310,cs),
(391,227,o),
(362,143,o),
(330,82,cs),
(297,21,o),
(259,-19,o),
(220,-14,cs),
(181,-9,o),
(162,40,o),
(150,108,cs),
(144,141,o),
(139,179,o),
(136,220,cs),
(128,302,o),
(118,385,o),
(99,457,cs),
(89,492,o),
(75,522,o),
(56,545,cs),
(36,570,o),
(38,608,o),
(55,647,cs),
(72,686,o),
(104,724,o),
(145,752,cs),
(185,780,o),
(234,795,o),
(283,787,cs)
);
}
);
width = 489;
}
);
note = one;
unicode = 49;
},
{
glyphname = two;
layers = (
{
layerId = m01;
shapes = (
{
closed = 1;
nodes = (
(581,498,o),
(557,448,o),
(529,406,cs),
(515,385,o),
(501,365,o),
(486,347,cs),
(456,311,o),
(431,282,o),
(420,261,cs),
(415,250,o),
(415,241,o),
(421,234,cs),
(429,223,o),
(443,213,o),
(462,203,cs),
(500,183,o),
(542,160,o),
(572,132,cs),
(602,103,o),
(604,69,o),
(569,46,cs),
(534,22,o),
(476,4,o),
(405,-7,cs),
(369,-13,o),
(333,-16,o),
(296,-16,cs),
(222,-16,o),
(149,-4,o),
(97,24,cs),
(58,45,o),
(50,78,o),
(59,117,cs),
(67,156,o),
(93,200,o),
(123,246,cs),
(138,269,o),
(153,292,o),
(170,315,cs),
(202,362,o),
(230,405,o),
(246,444,cs),
(262,483,o),
(259,519,o),
(240,536,cs),
(220,552,o),
(190,559,o),
(158,563,cs),
(126,567,o),
(96,577,o),
(76,598,cs),
(56,618,o),
(48,678,o),
(77,722,cs),
(106,766,o),
(158,793,o),
(224,804,cs),
(290,815,o),
(359,808,o),
(424,784,cs),
(489,760,o),
(541,718,o),
(569,658,cs),
(583,628,o),
(588,593,o),
(585,554,cs)
);
}
);
width = 646;
}
);
note = two;
unicode = 50;
},
{
glyphname = three;
layers = (
{
layerId = m01;
shapes = (
{
closed = 1;
nodes = (
(55,701,o),
(85,726,o),
(133,746,cs),
(180,766,o),
(244,780,o),
(309,785,cs),
(374,789,o),
(440,785,o),
(491,770,cs),
(542,755,o),
(578,729,o),
(583,689,cs),
(590,629,o),
(578,582,o),
(564,540,cs),
(550,498,o),
(535,464,o),
(539,432,cs),
(544,388,o),
(580,360,o),
(615,332,cs),
(650,303,o),
(683,273,o),
(684,222,cs),
(685,151,o),
(654,98,o),
(605,60,cs),
(556,22,o),
(488,-1,o),
(417,-11,cs),
(346,-21,o),
(273,-18,o),
(210,-3,cs),
(147,12,o),
(96,38,o),
(71,74,cs),
(52,101,o),
(65,119,o),
(89,136,cs),
(101,145,o),
(115,153,o),
(132,162,cs),
(165,178,o),
(196,198,o),
(217,222,cs),
(237,246,o),
(232,279,o),
(220,292,cs),
(207,305,o),
(187,314,o),
(165,322,cs),
(143,329,o),
(123,338,o),
(108,354,cs),
(93,369,o),
(87,402,o),
(108,427,cs),
(118,440,o),
(130,452,o),
(143,464,cs),
(170,487,o),
(196,509,o),
(195,534,cs),
(194,557,o),
(179,573,o),
(159,586,cs),
(149,592,o),
(138,598,o),
(127,603,cs),
(103,614,o),
(82,626,o),
(68,642,cs),
(61,649,o),
(57,659,o),
(56,670,cs)
);
}
);
width = 730;
}
);
note = three;
unicode = 51;
},
{
glyphname = four;
layers = (
{
layerId = m01;
shapes = (
{
closed = 1;
nodes = (
(169,783,o),
(190,771,o),
(213,752,cs),
(224,743,o),
(235,733,o),
(246,722,cs),
(267,700,o),
(289,679,o),
(310,666,cs),
(320,659,o),
(330,656,o),
(339,656,cs),
(359,656,o),
(379,671,o),
(400,691,cs),
(411,701,o),
(421,712,o),
(432,723,cs),
(453,745,o),
(477,764,o),
(499,775,cs),
(510,780,o),
(521,782,o),
(532,780,cs),
(579,772,o),
(610,719,o),
(627,644,cs),
(644,569,o),
(648,473,o),
(640,378,cs),
(632,282,o),
(614,188,o),
(587,117,cs),
(560,45,o),
(525,-2,o),
(484,-3,cs),
(429,-4,o),
(403,16,o),
(389,46,cs),
(382,61,o),
(377,78,o),
(375,98,cs),
(370,137,o),
(364,178,o),
(352,218,cs),
(339,257,o),
(308,291,o),
(269,292,cs),
(249,292,o),
(228,291,o),
(207,289,cs),
(163,284,o),
(119,279,o),
(83,308,cs),
(64,323,o),
(50,378,o),
(44,446,cs),
(38,514,o),
(39,594,o),
(55,659,cs),
(71,724,o),
(99,773,o),
(146,780,cs)
);
}
);
width = 697;
}
);
note = four;
unicode = 52;
},
{
glyphname = five;
layers = (
{
layerId = m01;
shapes = (
{
closed = 1;
nodes = (
(192,782,o),
(258,792,o),
(329,795,cs),
(400,798,o),
(472,793,o),
(528,777,cs),
(584,760,o),
(622,731,o),
(622,684,cs),
(622,647,o),
(589,628,o),
(546,616,cs),
(524,609,o),
(500,604,o),
(475,600,cs),
(424,592,o),
(379,580,o),
(350,559,cs),
(335,548,o),
(328,533,o),
(328,513,cs),
(328,477,o),
(363,456,o),
(411,441,cs),
(434,433,o),
(460,426,o),
(488,419,cs),
(543,406,o),
(593,389,o),
(626,362,cs),
(642,348,o),
(650,330,o),
(651,308,cs),
(654,241,o),
(626,162,o),
(572,100,cs),
(518,38,o),
(437,-5,o),
(333,2,cs),
(264,7,o),
(209,27,o),
(168,53,cs),
(127,79,o),
(99,110,o),
(83,138,cs),
(67,166,o),
(62,191,o),
(67,203,cs),
(76,226,o),
(101,234,o),
(129,239,cs),
(143,242,o),
(158,244,o),
(173,246,cs),
(203,249,o),
(229,255,o),
(246,271,cs),
(263,286,o),
(265,315,o),
(249,330,cs),
(233,345,o),
(206,356,o),
(174,366,cs),
(142,376,o),
(111,385,o),
(87,397,cs),
(63,408,o),
(59,415,o),
(55,450,cs),
(53,467,o),
(52,488,o),
(52,513,cs),
(52,561,o),
(58,621,o),
(72,670,cs),
(86,719,o),
(110,759,o),
(149,770,cs)
);
}
);
width = 697;
}
);
note = five;
unicode = 53;
},
{
glyphname = six;
layers = (
{
layerId = m01;
shapes = (
{
closed = 1;
nodes = (
(473,768,o),
(483,740,o),
(480,702,cs),
(479,683,o),
(475,662,o),
(469,640,cs),
(457,596,o),
(447,554,o),
(448,521,cs),
(448,488,o),
(473,477,o),
(509,459,cs),
(545,441,o),
(586,420,o),
(626,396,cs),
(665,372,o),
(697,343,o),
(714,310,cs),
(722,293,o),
(724,275,o),
(721,255,cs),
(712,195,o),
(675,122,o),
(612,67,cs),
(549,11,o),
(461,-24,o),
(350,-7,cs),
(239,9,o),
(166,62,o),
(119,130,cs),
(72,197,o),
(53,279,o),
(50,355,cs),
(49,406,o),
(72,473,o),
(109,538,cs),
(146,603,o),
(198,668,o),
(255,713,cs),
(312,758,o),
(375,784,o),
(432,775,cs)
);
},
{
closed = 1;
nodes = (
(339,215,o),
(347,211,o),
(359,211,cs),
(383,211,o),
(413,220,o),
(437,236,cs),
(461,251,o),
(468,266,o),
(459,291,cs),
(450,316,o),
(431,338,o),
(404,350,cs),
(377,361,o),
(349,349,o),
(338,326,cs),
(326,303,o),
(323,276,o),
(327,252,cs),
(329,239,o),
(332,229,o),
(335,222,cs)
);
}
);
width = 758;
}
);
note = six;
unicode = 54;
},
{
glyphname = seven;
layers = (
{
layerId = m01;
shapes = (
{
closed = 1;
nodes = (
(43,715,o),
(72,739,o),
(116,756,cs),
(160,773,o),
(222,784,o),
(284,786,cs),
(346,788,o),
(410,782,o),
(463,766,cs),
(515,750,o),
(555,725,o),
(570,689,cs),
(605,605,o),
(599,494,o),
(571,386,cs),
(542,277,o),
(490,170,o),
(430,95,cs),
(369,19,o),
(300,-24,o),
(237,-7,cs),
(208,1,o),
(202,47,o),
(206,108,cs),
(209,168,o),
(224,245,o),
(237,311,cs),
(249,377,o),
(260,435,o),
(256,460,cs),
(253,485,o),
(230,495,o),
(200,504,cs),
(170,513,o),
(132,523,o),
(102,548,cs),
(72,572,o),
(47,613,o),
(44,684,cs)
);
}
);
width = 640;
}
);
note = seven;
unicode = 55;
},
{
glyphname = eight;
layers = (
{
layerId = m01;
shapes = (
{
closed = 1;
nodes = (
(574,406,o),
(600,353,o),
(624,304,cs),
(648,255,o),
(671,209,o),
(666,160,cs),
(661,101,o),
(620,60,o),
(562,33,cs),
(504,5,o),
(428,-6,o),
(353,-4,cs),
(278,-2,o),
(204,14,o),
(148,43,cs),
(91,71,o),
(52,112,o),
(48,164,cs),
(45,199,o),
(59,237,o),
(79,275,cs),
(88,294,o),
(99,312,o),
(111,331,cs),
(134,368,o),
(155,405,o),
(168,438,cs),
(175,455,o),
(178,470,o),
(178,484,cs),
(178,508,o),
(176,533,o),
(173,558,cs),
(166,609,o),
(162,658,o),
(170,700,cs),
(177,742,o),
(202,773,o),
(257,790,cs),
(312,806,o),
(436,801,o),
(501,782,cs),
(565,763,o),
(594,735,o),
(599,696,cs),
(603,656,o),
(594,609,o),
(583,555,cs),
(577,528,o),
(574,499,o),
(574,470,cs)
);
},
{
closed = 1;
nodes = (
(287,548,o),
(293,518,o),
(307,494,cs),
(321,470,o),
(343,450,o),
(360,454,cs),
(381,458,o),
(399,478,o),
(410,500,cs),
(421,522,o),
(426,545,o),
(422,557,cs),
(418,569,o),
(396,579,o),
(372,583,cs),
(347,587,o),
(319,583,o),
(304,567,cs)
);
},
{
closed = 1;
nodes = (
(455,233,o),
(450,275,o),
(432,311,cs),
(414,347,o),
(384,378,o),
(349,371,cs),
(328,367,o),
(303,342,o),
(288,314,cs),
(272,285,o),
(266,252,o),
(281,233,cs),
(298,212,o),
(328,199,o),
(357,196,cs),
(386,192,o),
(417,199,o),
(436,216,cs)
);
}
);
width = 713;
}
);
note = eight;
unicode = 56;
},
{
glyphname = nine;
layers = (
{
layerId = m01;
shapes = (
{
closed = 1;
nodes = (
(646,233,o),
(591,168,o),
(523,117,cs),
(455,66,o),
(375,30,o),
(307,12,cs),
(238,-6,o),
(181,-6,o),
(162,15,cs),
(143,36,o),
(153,56,o),
(174,78,cs),
(184,89,o),
(196,100,o),
(210,113,cs),
(237,138,o),
(260,171,o),
(272,211,cs),
(283,251,o),
(274,294,o),
(242,309,cs),
(226,316,o),
(208,324,o),
(188,332,cs),
(148,347,o),
(102,364,o),
(77,400,cs),
(53,433,o),
(42,479,o),
(46,530,cs),
(50,581,o),
(72,634,o),
(112,682,cs),
(152,729,o),
(213,768,o),
(297,791,cs),
(374,812,o),
(446,795,o),
(507,753,cs),
(567,711,o),
(615,644,o),
(644,566,cs),
(672,488,o),
(681,398,o),
(662,310,cs)
);
},
{
closed = 1;
nodes = (
(337,509,o),
(322,484,o),
(321,460,cs),
(320,436,o),
(331,411,o),
(354,402,cs),
(377,393,o),
(402,400,o),
(421,416,cs),
(440,431,o),
(451,454,o),
(444,478,cs),
(429,525,o),
(408,531,o),
(365,518,cs)
);
}
);
width = 719;
}
);
note = nine;
unicode = 57;
},
{
glyphname = asterisk;
layers = (
{
layerId = m01;
shapes = (
{
closed = 1;
nodes = (
(425,749,o),
(450,728,o),
(471,697,cs),
(482,682,o),
(491,665,o),
(500,646,cs),
(517,609,o),
(534,574,o),
(551,550,cs),
(568,525,o),
(592,525,o),
(633,526,cs),
(673,527,o),
(716,529,o),
(752,526,cs),
(788,522,o),
(805,511,o),
(801,487,cs),
(796,463,o),
(780,432,o),
(759,397,cs),
(738,361,o),
(717,326,o),
(704,296,cs),
(697,281,o),
(694,268,o),
(694,258,cs),
(694,243,o),
(698,226,o),
(707,205,cs),
(724,164,o),
(742,120,o),
(747,81,cs),
(751,42,o),
(726,21,o),
(700,24,cs),
(674,27,o),
(644,41,o),
(610,62,cs),
(576,82,o),
(542,101,o),
(513,113,cs),
(484,125,o),
(462,121,o),
(439,105,cs),
(415,89,o),
(392,68,o),
(369,46,cs),
(346,24,o),
(323,7,o),
(300,0,cs),
(276,-7,o),
(243,2,o),
(226,47,cs),
(209,92,o),
(204,150,o),
(202,203,cs),
(201,229,o),
(199,249,o),
(196,264,cs),
(193,284,o),
(172,302,o),
(148,320,cs),
(109,347,ls),
(81,365,o),
(58,383,o),
(44,404,cs),
(30,424,o),
(34,450,o),
(54,464,cs),
(74,478,o),
(105,485,o),
(141,489,cs),
(191,495,ls),
(223,498,o),
(251,503,o),
(260,512,cs),
(271,523,o),
(279,549,o),
(288,582,cs),
(297,614,o),
(309,651,o),
(326,682,cs),
(342,713,o),
(363,737,o),
(392,742,cs)
);
}
);
width = 843;
}
);
note = asterisk;
unicode = 42;
},
{
glyphname = backslash;
layers = (
{
layerId = m01;
shapes = (
{
closed = 1;
nodes = (
(93,812,o),
(144,790,o),
(204,742,cs),
(263,693,o),
(330,617,o),
(394,534,cs),
(457,451,o),
(516,363,o),
(558,287,cs),
(600,211,o),
(624,149,o),
(617,121,cs),
(604,65,o),
(579,29,o),
(551,10,cs),
(522,-9,o),
(489,-11,o),
(460,0,cs),
(451,3,o),
(436,16,o),
(416,37,cs),
(375,79,o),
(322,145,o),
(264,227,cs),
(206,309,o),
(150,398,o),
(106,486,cs),
(61,574,o),
(35,653,o),
(36,714,cs),
(36,745,o),
(45,768,o),
(64,785,cs)
);
}
);
width = 652;
}
);
note = backslash;
unicode = 92;
},
{
glyphname = colon;
layers = (
{
layerId = m01;
shapes = (
{
closed = 1;
nodes = (
(202,657,o),
(228,639,o),
(251,615,cs),
(274,590,o),
(291,556,o),
(296,522,cs),
(301,488,o),
(294,455,o),
(267,431,cs),
(227,396,o),
(181,385,o),
(142,390,cs),
(103,395,o),
(73,419,o),
(64,454,cs),
(55,489,o),
(61,537,o),
(81,578,cs),
(101,618,o),
(134,650,o),
(178,654,cs)
);
},
{
closed = 1;
nodes = (
(209,327,o),
(251,312,o),
(281,286,cs),
(311,260,o),
(329,222,o),
(318,186,cs),
(310,162,o),
(287,137,o),
(256,120,cs),
(225,103,o),
(188,90,o),
(154,90,cs),
(120,90,o),
(88,100,o),
(69,128,cs),
(41,169,o),
(49,213,o),
(73,248,cs),
(97,283,o),
(139,310,o),
(176,319,cs)
);
}
);
width = 365;
}
);
note = colon;
unicode = 58;
},
{
glyphname = comma;
layers = (
{
layerId = m01;
shapes = (
{
closed = 1;
nodes = (
(91,306,o),
(136,322,o),
(177,315,cs),
(217,307,o),
(255,277,o),
(255,209,cs),
(255,144,o),
(227,88,o),
(190,56,cs),
(153,24,o),
(107,13,o),
(72,36,cs),
(59,44,o),
(58,67,o),
(59,91,cs),
(60,102,o),
(61,114,o),
(63,125,cs),
(67,148,o),
(69,159,o),
(64,176,cs),
(59,193,o),
(55,214,o),
(59,239,cs),
(60,251,o),
(66,264,o),
(75,279,cs)
);
}
);
width = 298;
}
);
note = comma;
unicode = 44;
},
{
glyphname = exclam;
layers = (
{
layerId = m01;
shapes = (
{
closed = 1;
nodes = (
(260,790,o),
(295,756,o),
(316,707,cs),
(336,658,o),
(343,591,o),
(339,526,cs),
(335,461,o),
(320,395,o),
(297,347,cs),
(274,298,o),
(244,265,o),
(208,265,cs),
(172,265,o),
(137,299,o),
(109,349,cs),
(80,399,o),
(57,465,o),
(49,531,cs),
(41,597,o),
(45,663,o),
(70,712,cs),
(94,761,o),
(137,792,o),
(208,791,cs)
);
},
{
closed = 1;
nodes = (
(246,225,o),
(276,204,o),
(291,173,cs),
(306,142,o),
(306,102,o),
(301,86,cs),
(296,70,o),
(283,35,o),
(260,12,cs),
(237,-11,o),
(205,-21,o),
(158,11,cs),
(111,43,o),
(97,84,o),
(105,121,cs),
(113,157,o),
(144,190,o),
(191,206,cs)
);
}
);
width = 388;
}
);
note = exclam;
unicode = 33;
},
{
glyphname = numbersign;
layers = (
{
layerId = m01;
shapes = (
{
closed = 1;
nodes = (
(321,791,o),
(342,771,o),
(355,740,cs),
(361,725,o),
(366,707,o),
(369,688,cs),
(375,649,o),
(380,615,o),
(390,592,cs),
(395,580,o),
(402,574,o),
(412,574,cs),
(432,574,o),
(447,597,o),
(460,626,cs),
(467,641,o),
(473,657,o),
(479,674,cs),
(490,708,o),
(502,737,o),
(518,754,cs),
(533,771,o),
(556,767,o),
(568,744,cs),
(580,721,o),
(588,686,o),
(592,647,cs),
(596,607,o),
(600,569,o),
(605,541,cs),
(609,512,o),
(617,502,o),
(637,495,cs),
(657,488,o),
(683,485,o),
(708,482,cs),
(733,479,o),
(756,473,o),
(770,462,cs),
(777,457,o),
(780,449,o),
(780,439,cs),
(780,410,o),
(744,387,o),
(709,368,cs),
(673,348,o),
(637,330,o),
(637,309,cs),
(637,288,o),
(674,275,o),
(711,264,cs),
(748,252,o),
(785,241,o),
(785,222,cs),
(785,210,o),
(769,199,o),
(748,190,cs),
(737,185,o),
(726,181,o),
(713,176,cs),
(688,167,o),
(666,158,o),
(650,147,cs),
(642,142,o),
(638,136,o),
(637,130,cs),
(634,111,o),
(627,75,o),
(611,45,cs),
(594,15,o),
(566,-8,o),
(522,0,cs),
(478,8,o),
(451,48,o),
(431,88,cs),
(421,107,o),
(413,125,o),
(406,142,cs),
(399,158,o),
(392,167,o),
(385,168,cs),
(380,169,o),
(376,165,o),
(371,158,cs),
(362,143,o),
(352,120,o),
(341,93,cs),
(330,66,o),
(318,43,o),
(304,29,cs),
(290,15,o),
(269,19,o),
(252,44,cs),
(235,69,o),
(219,103,o),
(203,135,cs),
(187,167,o),
(173,183,o),
(142,193,cs),
(110,203,o),
(77,216,o),
(57,238,cs),
(36,260,o),
(42,306,o),
(70,323,cs),
(83,332,o),
(98,339,o),
(114,344,cs),
(146,354,o),
(180,361,o),
(188,385,cs),
(196,409,o),
(165,423,o),
(132,437,cs),
(99,451,o),
(66,465,o),
(67,493,cs),
(70,537,o),
(98,550,o),
(129,559,cs),
(160,567,o),
(193,572,o),
(204,596,cs),
(209,608,o),
(213,624,o),
(216,643,cs),
(221,682,o),
(228,722,o),
(244,752,cs),
(252,767,o),
(264,776,o),
(281,780,cs)
);
}
);
width = 826;
}
);
note = numbersign;
unicode = 35;
},
{
glyphname = period;
layers = (
{
layerId = m01;
shapes = (
{
closed = 1;
nodes = (
(148,23,o),
(110,39,o),
(84,67,cs),
(58,95,o),
(43,135,o),
(55,174,cs),
(67,213,o),
(104,240,o),
(144,250,cs),
(184,260,o),
(225,253,o),
(244,222,cs),
(264,193,o),
(272,150,o),
(264,114,cs),
(256,77,o),
(232,44,o),
(184,32,cs)
);
}
);
width = 320;
}
);
note = period;
unicode = 46;
},
{
glyphname = question;
layers = (
{
layerId = m01;
shapes = (
{
closed = 1;
nodes = (
(86,775,o),
(144,806,o),
(208,811,cs),
(272,816,o),
(341,799,o),
(396,769,cs),
(451,739,o),
(492,697,o),
(497,656,cs),
(502,615,o),
(489,575,o),
(468,539,cs),
(447,502,o),
(418,470,o),
(393,443,cs),
(359,406,ls),
(339,385,o),
(329,364,o),
(317,328,cs),
(304,291,o),
(287,259,o),
(257,242,cs),
(227,225,o),
(162,228,o),
(137,264,cs),
(112,299,o),
(110,351,o),
(130,408,cs),
(139,437,o),
(154,463,o),
(173,488,cs),
(190,509,o),
(175,528,o),
(151,546,cs),
(108,575,ls),
(76,595,o),
(51,620,o),
(43,653,cs),
(38,670,o),
(42,689,o),
(53,710,cs)
);
},
{
closed = 1;
nodes = (
(239,191,o),
(207,152,o),
(196,110,cs),
(185,68,o),
(195,21,o),
(228,5,cs),
(261,-11,o),
(300,-8,o),
(332,9,cs),
(363,25,o),
(385,57,o),
(382,97,cs),
(379,138,o),
(374,163,o),
(360,179,cs),
(346,194,o),
(324,198,o),
(288,195,cs)
);
}
);
width = 539;
}
);
note = question;
unicode = 63;
},
{
glyphname = quotedbl;
layers = (
{
layerId = m01;
shapes = (
{
closed = 1;
nodes = (
(115,690,o),
(156,696,o),
(190,692,cs),
(224,688,o),
(251,674,o),
(256,657,cs),
(260,645,o),
(258,610,o),
(253,570,cs),
(248,529,o),
(237,482,o),
(222,447,cs),
(206,411,o),
(187,387,o),
(160,394,cs),
(133,399,o),
(110,426,o),
(91,462,cs),
(72,497,o),
(61,540,o),
(58,579,cs),
(55,618,o),
(63,651,o),
(84,667,cs)
);
},
{
closed = 1;
nodes = (
(373,690,o),
(414,696,o),
(448,692,cs),
(482,688,o),
(510,674,o),
(515,657,cs),
(519,645,o),
(517,610,o),
(512,570,cs),
(507,529,o),
(496,482,o),
(481,447,cs),
(465,411,o),
(445,387,o),
(418,394,cs),
(393,399,o),
(368,426,o),
(350,462,cs),
(332,497,o),
(319,540,o),
(316,579,cs),
(313,618,o),
(321,651,o),
(342,667,cs)
);
}
);
width = 573;
}
);
note = quotedbl;
unicode = 34;
},
{
glyphname = quotesingle;
layers = (
{
layerId = m01;
shapes = (
{
closed = 1;
nodes = (
(106,690,o),
(147,696,o),
(181,692,cs),
(215,688,o),
(242,674,o),
(247,657,cs),
(251,645,o),
(249,610,o),
(244,570,cs),
(239,529,o),
(228,482,o),
(213,447,cs),
(197,411,o),
(178,387,o),
(151,394,cs),
(124,399,o),
(101,426,o),
(82,462,cs),
(63,497,o),
(52,540,o),
(49,579,cs),
(46,618,o),
(54,651,o),
(75,667,cs)
);
}
);
width = 298;
}
);
note = quotesingle;
unicode = 39;
},
{
glyphname = semicolon;
layers = (
{
layerId = m01;
shapes = (
{
closed = 1;
nodes = (
(149,398,o),
(112,414,o),
(86,442,cs),
(60,470,o),
(44,510,o),
(56,549,cs),
(68,589,o),
(105,616,o),
(145,625,cs),
(185,634,o),
(227,628,o),
(246,597,cs),
(265,568,o),
(273,525,o),
(265,489,cs),
(257,452,o),
(233,419,o),
(185,407,cs)
);
},
{
closed = 1;
nodes = (
(72,250,o),
(71,225,o),
(74,205,cs),
(75,194,o),
(77,185,o),
(80,176,cs),
(85,159,o),
(83,148,o),
(79,125,cs),
(75,102,o),
(73,78,o),
(76,58,cs),
(77,47,o),
(81,40,o),
(88,36,cs),
(123,13,o),
(169,24,o),
(206,56,cs),
(243,88,o),
(271,144,o),
(271,209,cs),
(271,277,o),
(233,307,o),
(193,315,cs),
(152,322,o),
(107,306,o),
(91,279,cs)
);
}
);
width = 320;
}
);
note = semicolon;
unicode = 59;
},
{
glyphname = slash;
layers = (
{
layerId = m01;
shapes = (
{
closed = 1;
nodes = (
(622,752,o),
(620,687,o),
(596,610,cs),
(571,533,o),
(524,442,o),
(470,354,cs),
(416,266,o),
(354,181,o),
(302,117,cs),
(276,84,o),
(253,58,o),
(233,37,cs),
(193,-5,o),
(175,-9,o),
(144,-6,cs),
(112,-3,o),
(82,15,o),
(59,52,cs),
(35,88,o),
(22,127,o),
(44,186,cs),
(66,245,o),
(109,323,o),
(166,408,cs),
(222,493,o),
(287,578,o),
(352,651,cs),
(417,723,o),
(478,774,o),
(527,792,cs),
(551,801,o),
(570,798,o),
(585,785,cs)
);
}
);
width = 646;
}
);
note = slash;
unicode = 47;
},
{
glyphname = underscore;
layers = (
{
layerId = m01;
shapes = (
{
closed = 1;
nodes = (
(45,105,o),
(53,114,o),
(68,123,cs),
(98,140,o),
(150,154,o),
(215,165,cs),
(279,176,o),
(351,183,o),
(419,186,cs),
(487,189,o),
(546,188,o),
(586,182,cs),
(626,176,o),
(642,159,o),
(651,131,cs),
(660,103,o),
(654,73,o),
(630,46,cs),
(606,19,o),
(576,4,o),
(513,0,cs),
(449,-4,o),
(368,-1,o),
(284,10,cs),
(199,21,o),
(125,37,o),
(80,59,cs),
(57,70,o),
(46,82,o),
(45,95,cs)
);
}
);
width = 708;
}
);
note = underscore;
unicode = 95;
},
{
glyphname = braceleft;
layers = (
{
layerId = m01;
shapes = (
{
closed = 1;
nodes = (
(416,791,o),
(431,763,o),
(436,731,cs),
(440,699,o),
(435,662,o),
(424,637,cs),
(419,624,o),
(409,608,o),
(393,589,cs),
(360,549,o),
(324,506,o),
(298,470,cs),
(272,433,o),
(275,425,o),
(298,395,cs),
(309,380,o),
(323,362,o),
(339,343,cs),
(371,304,o),
(410,259,o),
(439,216,cs),
(468,173,o),
(488,134,o),
(483,110,cs),
(474,74,o),
(457,41,o),
(434,20,cs),
(410,-1,o),
(381,-11,o),
(346,0,cs),
(311,11,o),
(267,40,o),
(231,80,cs),
(195,120,o),
(168,171,o),
(168,220,cs),
(168,253,o),
(152,277,o),
(131,297,cs),
(120,306,o),
(109,315,o),
(98,323,cs),
(74,339,o),
(53,357,o),
(42,378,cs),
(30,399,o),
(35,441,o),
(61,474,cs),
(74,491,o),
(87,506,o),
(102,521,cs),
(131,549,o),
(161,575,o),
(166,607,cs),
(174,659,o),
(202,710,o),
(240,746,cs),
(278,782,o),
(328,803,o),
(384,795,cs)
);
}
);
width = 534;
}
);
note = braceleft;
unicode = 123;
},
{
glyphname = braceright;
layers = (
{
layerId = m01;
shapes = (
{
closed = 1;
nodes = (
(209,803,o),
(260,782,o),
(298,746,cs),
(336,710,o),
(363,659,o),
(371,607,cs),
(376,575,o),
(406,549,o),
(435,521,cs),
(464,492,o),
(494,460,o),
(501,416,cs),
(505,387,o),
(492,367,o),
(472,349,cs),
(462,340,o),
(451,331,o),
(440,323,cs),
(416,307,o),
(394,288,o),
(380,264,cs),
(373,251,o),
(369,237,o),
(369,220,cs),
(369,171,o),
(342,120,o),
(306,80,cs),
(270,40,o),
(226,11,o),
(191,0,cs),
(158,-11,o),
(127,-1,o),
(104,20,cs),
(80,41,o),
(63,74,o),
(55,110,cs),
(48,134,o),
(69,173,o),
(98,216,cs),
(127,259,o),
(166,304,o),
(198,343,cs),
(214,362,o),
(228,380,o),
(239,395,cs),
(262,425,o),
(261,432,o),
(250,453,cs),
(238,474,o),
(218,500,o),
(195,528,cs),
(171,556,o),
(148,583,o),
(131,607,cs),
(114,631,o),
(107,648,o),
(102,682,cs),
(97,716,o),
(101,749,o),
(117,774,cs),
(125,786,o),
(137,793,o),
(153,795,cs)
);
}
);
width = 534;
}
);
note = braceright;
unicode = 125;
},
{
glyphname = bracketleft;
layers = (
{
layerId = m01;
shapes = (
{
closed = 1;
nodes = (
(134,777,o),
(176,790,o),
(224,798,cs),
(272,805,o),
(326,803,o),
(371,795,cs),
(415,786,o),
(449,769,o),
(457,744,cs),
(466,719,o),
(454,699,o),
(434,683,cs),
(414,666,o),
(386,653,o),
(362,642,cs),
(337,630,o),
(315,620,o),
(310,609,cs),
(307,604,o),
(305,590,o),
(304,568,cs),
(300,524,o),
(299,463,o),
(299,396,cs),
(299,328,o),
(300,268,o),
(304,227,cs),
(307,186,o),
(308,184,o),
(341,176,cs),
(358,171,o),
(375,167,o),
(394,163,cs),
(431,155,o),
(467,145,o),
(470,130,cs),
(471,125,o),
(468,117,o),
(461,105,cs),
(447,81,o),
(419,54,o),
(380,28,cs),
(340,2,o),
(290,-14,o),
(231,-13,cs),
(202,-13,o),
(171,-6,o),
(138,7,cs),
(113,18,o),
(94,64,o),
(81,129,cs),
(68,194,o),
(61,280,o),
(59,365,cs),
(57,450,o),
(61,537,o),
(70,608,cs),
(78,679,o),
(93,733,o),
(113,754,cs)
);
}
);
width = 522;
}
);
note = bracketleft;
unicode = 91;
},
{
glyphname = bracketright;
layers = (
{
layerId = m01;
shapes = (
{
closed = 1;
nodes = (
(430,733,o),
(445,679,o),
(454,608,cs),
(462,537,o),
(467,450,o),
(465,365,cs),
(463,280,o),
(455,194,o),
(442,129,cs),
(429,64,o),
(410,18,o),
(385,7,cs),
(320,-20,o),
(261,-18,o),
(211,-3,cs),
(161,12,o),
(121,40,o),
(94,67,cs),
(80,80,o),
(70,93,o),
(63,105,cs),
(49,129,o),
(47,138,o),
(78,149,cs),
(93,154,o),
(110,159,o),
(129,163,cs),
(166,171,o),
(205,179,o),
(213,190,cs),
(216,194,o),
(218,206,o),
(220,227,cs),
(223,268,o),
(224,328,o),
(224,396,cs),
(224,463,o),
(223,524,o),
(220,568,cs),
(216,612,o),
(214,614,o),
(195,625,cs),
(162,642,ls),
(138,653,o),
(109,666,o),
(89,683,cs),
(69,699,o),
(58,719,o),
(66,744,cs),
(74,769,o),
(108,786,o),
(153,795,cs),
(197,803,o),
(251,805,o),
(299,798,cs),
(347,790,o),
(390,777,o),
(410,754,cs)
);
}
);
width = 522;
}
);
note = bracketright;
unicode = 93;
},
{
glyphname = parenleft;
layers = (
{
layerId = m01;
shapes = (
{
closed = 1;
nodes = (
(467,799,o),
(471,786,o),
(468,766,cs),
(463,725,o),
(442,667,o),
(414,601,cs),
(385,535,o),
(357,470,o),
(340,416,cs),
(323,362,o),
(326,338,o),
(346,296,cs),
(366,254,o),
(395,208,o),
(425,162,cs),
(455,116,o),
(478,75,o),
(489,44,cs),
(500,13,o),
(493,-1,o),
(446,-1,cs),
(399,-2,o),
(332,14,o),
(260,49,cs),
(188,84,o),
(122,139,o),
(78,216,cs),
(34,292,o),
(27,399,o),
(60,484,cs),
(92,569,o),
(148,642,o),
(216,698,cs),
(283,753,o),
(349,790,o),
(401,804,cs),
(426,811,o),
(445,811,o),
(456,804,c)
);
}
);
width = 551;
}
);
note = parenleft;
unicode = 40;
},
{
glyphname = parenright;
layers = (
{
layerId = m01;
shapes = (
{
closed = 1;
nodes = (
(118,822,o),
(173,807,o),
(237,771,cs),
(301,735,o),
(373,679,o),
(427,607,cs),
(481,535,o),
(517,449,o),
(510,353,cs),
(503,253,o),
(455,177,o),
(392,122,cs),
(329,67,o),
(252,33,o),
(188,16,cs),
(156,7,o),
(128,3,o),
(105,4,cs),
(58,4,o),
(51,18,o),
(62,49,cs),
(73,80,o),
(97,121,o),
(127,167,cs),
(157,213,o),
(185,259,o),
(205,301,cs),
(224,343,o),
(227,367,o),
(210,421,cs),
(193,475,o),
(166,540,o),
(138,606,cs),
(109,672,o),
(88,730,o),
(83,771,cs),
(80,791,o),
(84,804,o),
(95,809,cs)
);
}
);
width = 551;
}
);
note = parenright;
unicode = 41;
},
{
glyphname = hyphen;
layers = (
{
layerId = m01;
shapes = (
{
closed = 1;
nodes = (
(58,427,o),
(71,436,o),
(95,442,cs),
(142,454,o),
(214,456,o),
(294,449,cs),
(373,442,o),
(444,428,o),
(490,407,cs),
(536,386,o),
(537,348,o),
(506,321,cs),
(474,294,o),
(422,279,o),
(365,274,cs),
(308,269,o),
(265,270,o),
(206,280,cs),
(147,290,o),
(96,312,o),
(68,349,cs),
(53,367,o),
(49,389,o),
(55,416,cs)
);
}
);
width = 573;
}
);
note = hyphen;
unicode = 45;
},
{
glyphname = dollar;
layers = (
{
layerId = m01;
shapes = (
{
closed = 1;
nodes = (
(345,521,o),
(338,507,o),
(330,492,cs),
(322,477,o),
(314,462,o),
(318,436,cs),
(321,410,o),
(338,373,o),
(379,316,cs),
(399,288,o),
(401,251,o),
(389,215,cs),
(377,178,o),
(351,143,o),
(318,119,cs),
(310,114,o),
(302,91,o),
(294,69,cs),
(285,47,o),
(277,27,o),
(266,24,c),
(255,23,o),
(245,39,o),
(234,56,cs),
(223,73,o),
(213,91,o),
(205,92,cs),
(173,96,o),
(148,109,o),
(132,125,cs),
(115,140,o),
(107,156,o),
(107,165,cs),
(107,171,o),
(110,177,o),
(115,182,cs),
(125,193,o),
(138,206,o),
(148,225,cs),
(153,234,o),
(155,245,o),
(155,258,cs),
(155,271,o),
(149,283,o),
(137,292,cs),
(113,311,o),
(81,332,o),
(57,367,cs),
(33,402,o),
(34,482,o),
(63,540,cs),
(78,569,o),
(98,591,o),
(124,608,cs),
(131,613,o),
(138,621,o),
(143,633,cs),
(154,657,o),
(165,684,o),
(178,704,cs),
(185,714,o),
(193,719,o),
(203,719,cs),
(207,719,o),
(212,715,o),
(218,706,cs),
(237,676,ls),
(250,654,o),
(263,632,o),
(270,629,cs),
(309,614,o),
(331,581,o),
(340,545,cs)
);
}
);
width = 437;
}
);
note = dollar;
unicode = 36;
},
{
glyphname = asciitilde;
layers = (
{
layerId = m01;
shapes = (
{
closed = 1;
nodes = (
(158,712,o),
(208,720,o),
(262,720,cs),
(289,720,o),
(316,718,o),
(345,714,cs),
(402,706,o),
(461,701,o),
(519,705,cs),
(548,707,o),
(576,714,o),
(603,726,cs),
(658,750,o),
(703,738,o),
(732,710,cs),
(760,681,o),
(775,636,o),
(768,590,cs),
(760,544,o),
(733,499,o),
(680,471,cs),
(601,431,o),
(544,421,o),
(497,424,cs),
(473,425,o),
(451,429,o),
(431,435,cs),
(390,447,o),
(348,458,o),
(297,459,cs),
(272,459,o),
(242,454,o),
(208,444,cs),
(167,432,o),
(128,442,o),
(100,465,cs),
(72,488,o),
(55,524,o),
(55,563,cs),
(55,602,o),
(74,642,o),
(115,677,cs)
);
}
);
width = 820;
}
);
note = asciitilde;
unicode = 126;
},
{
glyphname = equal;
layers = (
{
layerId = m01;
shapes = (
{
closed = 1;
nodes = (
(581,511,o),
(593,485,o),
(594,458,cs),
(594,431,o),
(584,406,o),
(568,391,cs),
(563,386,o),
(547,383,o),
(520,382,cs),
(465,378,o),
(387,380,o),
(302,388,cs),
(217,396,o),
(142,410,o),
(95,433,cs),
(71,444,o),
(59,457,o),
(59,472,cs),
(59,503,o),
(103,522,o),
(165,534,cs),
(227,546,o),
(307,550,o),
(380,547,cs),
(452,544,o),
(518,536,o),
(549,524,cs)
);
},
{
closed = 1;
nodes = (
(64,173,o),
(55,200,o),
(55,226,cs),
(55,252,o),
(66,278,o),
(83,291,cs),
(106,308,o),
(170,318,o),
(244,319,cs),
(318,319,o),
(403,312,o),
(471,297,cs),
(539,281,o),
(589,258,o),
(593,227,cs),
(595,212,o),
(585,198,o),
(564,187,cs),
(521,163,o),
(452,148,o),
(369,141,cs),
(285,134,o),
(206,135,o),
(146,143,cs),
(115,147,o),
(94,153,o),
(83,161,cs)
);
}
);
width = 646;
}
);
note = equal;
unicode = 61;
},
{
glyphname = greater;
layers = (
{
layerId = m01;
shapes = (
{
closed = 1;
nodes = (
(104,669,o),
(169,663,o),
(242,636,cs),
(314,609,o),
(394,563,o),
(455,514,cs),
(515,465,o),
(556,412,o),
(551,373,cs),
(546,332,o),
(515,284,o),
(474,240,cs),
(433,196,o),
(379,153,o),
(326,119,cs),
(273,85,o),
(219,59,o),
(176,48,cs),
(132,37,o),
(100,42,o),
(91,67,cs),
(79,100,o),
(92,141,o),
(113,181,cs),
(134,221,o),
(166,260,o),
(191,292,cs),
(204,308,o),
(214,322,o),
(223,334,cs),
(240,358,o),
(239,364,o),
(215,388,cs),
(202,399,o),
(188,413,o),
(172,428,cs),
(139,459,o),
(100,497,o),
(77,534,cs),
(54,570,o),
(47,607,o),
(75,638,cs)
);
}
);
width = 584;
}
);
note = greater;
unicode = 62;
},
{
glyphname = less;
layers = (
{
layerId = m01;
shapes = (
{
closed = 1;
nodes = (
(543,607,o),
(536,570,o),
(513,534,cs),
(489,497,o),
(451,459,o),
(418,428,cs),
(401,413,o),
(387,399,o),
(375,388,cs),
(350,364,o),
(350,358,o),
(367,334,cs),
(375,322,o),
(385,308,o),
(398,292,cs),
(423,260,o),
(455,221,o),
(477,181,cs),
(499,141,o),
(511,100,o),
(498,67,cs),
(486,34,o),
(433,37,o),
(368,64,cs),
(303,91,o),
(224,140,o),
(160,197,cs),
(96,253,o),
(46,317,o),
(38,373,cs),
(33,412,o),
(74,465,o),
(135,514,cs),
(195,563,o),
(276,609,o),
(348,636,cs),
(420,663,o),
(485,669,o),
(514,638,cs)
);
}
);
width = 590;
}
);
note = less;
unicode = 60;
},
{
glyphname = percent;
layers = (
{
layerId = m01;
shapes = (
{
closed = 1;
nodes = (
(91,686,o),
(124,701,o),
(156,705,cs),
(188,708,o),
(219,700,o),
(234,688,cs),
(258,669,o),
(266,627,o),
(259,587,cs),
(251,547,o),
(229,509,o),
(196,498,cs),
(163,487,o),
(126,510,o),
(100,543,cs),
(74,575,o),
(60,618,o),
(75,650,cs)
);
},
{
closed = 1;
nodes = (
(577,646,o),
(579,634,o),
(576,614,cs),
(568,573,o),
(543,511,o),
(505,436,cs),
(467,360,o),
(421,280,o),
(374,207,cs),
(326,134,o),
(281,74,o),
(245,39,cs),
(209,3,o),
(177,4,o),
(140,26,cs),
(103,48,o),
(76,82,o),
(64,116,cs),
(52,150,o),
(55,156,o),
(80,193,cs),
(105,229,o),
(147,282,o),
(199,345,cs),
(251,408,o),
(310,471,o),
(367,527,cs),
(424,583,o),
(478,625,o),
(519,645,cs),
(540,654,o),
(556,656,o),
(569,650,cs)
);
},
{
closed = 1;
nodes = (
(555,238,o),
(584,219,o),
(608,194,cs),
(632,169,o),
(651,138,o),
(651,114,cs),
(651,90,o),
(637,66,o),
(613,54,cs),
(601,48,o),
(587,45,o),
(570,45,cs),
(537,45,o),
(487,63,o),
(473,103,cs),
(459,143,o),
(466,186,o),
(491,216,cs),
(503,231,o),
(518,238,o),
(536,238,cs)
);
}
);
width = 691;
}
);
note = percent;
unicode = 37;
},
{
glyphname = plus;
layers = (
{
layerId = m01;
shapes = (
{
closed = 1;
nodes = (
(434,784,o),
(465,762,o),
(485,729,cs),
(504,696,o),
(511,652,o),
(519,613,cs),
(526,574,o),
(531,541,o),
(546,529,cs),
(562,517,o),
(592,513,o),
(628,507,cs),
(663,501,o),
(701,495,o),
(730,481,cs),
(758,467,o),
(778,446,o),
(777,411,cs),
(776,376,o),
(754,352,o),
(724,333,cs),
(694,314,o),
(657,301,o),
(625,289,cs),
(592,277,o),
(565,265,o),
(556,250,cs),
(551,243,o),
(547,231,o),
(544,216,cs),
(537,184,o),
(528,146,o),
(516,107,cs),
(503,68,o),
(483,36,o),
(453,20,cs),
(423,3,o),
(371,11,o),
(343,37,cs),
(315,63,o),
(297,100,o),
(289,141,cs),
(280,181,o),
(275,221,o),
(271,250,cs),
(267,279,o),
(264,288,o),
(237,297,cs),
(223,302,o),
(207,307,o),
(189,312,cs),
(153,323,o),
(112,335,o),
(81,352,cs),
(49,369,o),
(29,391,o),
(34,423,cs),
(41,455,o),
(66,474,o),
(99,487,cs),
(132,499,o),
(173,507,o),
(207,513,cs),
(241,519,o),
(269,526,o),
(278,539,cs),
(287,552,o),
(290,582,o),
(294,616,cs),
(298,650,o),
(302,687,o),
(315,719,cs),
(327,750,o),
(346,773,o),
(381,777,cs)
);
}
);
width = 809;
}
);
note = plus;
unicode = 43;
},
{
glyphname = bar;
layers = (
{
layerId = m01;
shapes = (
{
closed = 1;
nodes = (
(193,798,o),
(208,790,o),
(222,771,cs),
(250,733,o),
(274,664,o),
(292,577,cs),
(310,489,o),
(321,394,o),
(328,302,cs),
(335,210,o),
(334,133,o),
(326,81,cs),
(317,28,o),
(301,22,o),
(266,7,cs),
(230,-9,o),
(189,-16,o),
(150,-12,cs),
(110,-8,o),
(92,5,o),
(80,54,cs),
(67,103,o),
(59,179,o),
(55,270,cs),
(51,361,o),
(55,457,o),
(65,546,cs),
(75,635,o),
(95,708,o),
(125,755,cs),
(140,778,o),
(157,792,o),
(178,795,cs)
);
}
);
width = 376;
}
);
note = bar;
unicode = 124;
},
{
glyphname = at;
lastChange = "2023-03-06 21:23:19 +0000";
layers = (
{
layerId = m01;
shapes = (
{
closed = 1;
nodes = (
(102,526,o),
(171,578,o),
(236,604,cs),
(268,617,o),
(297,624,o),
(324,626,cs),
(350,627,o),
(367,624,o),
(374,616,cs),
(383,607,o),
(388,578,o),
(390,543,cs),
(393,489,ls),
(395,452,o),
(394,418,o),
(396,396,cs),
(398,374,o),
(409,365,o),
(417,380,cs),
(425,395,o),
(432,423,o),
(440,458,cs),
(447,493,o),
(456,525,o),
(471,549,cs),
(486,573,o),
(518,580,o),
(543,563,cs),
(567,546,o),
(583,512,o),
(588,465,cs),
(593,417,o),
(590,363,o),
(576,307,cs),
(562,251,o),
(534,181,o),
(488,130,cs),
(442,78,o),
(388,55,o),
(332,60,cs),
(276,64,o),
(274,132,o),
(239,154,cs),
(203,176,o),
(120,51,o),
(88,89,cs),
(56,127,o),
(48,292,o),
(48,350,cs),
(48,379,o),
(55,410,o),
(69,445,cs)
);
},
{
closed = 1;
nodes = (
(366,384,o),
(360,401,o),
(350,411,cs),
(298,461,o),
(251,390,o),
(239,375,cs),
(226,359,o),
(234,308,o),
(247,292,cs),
(259,276,o),
(276,278,o),
(295,290,cs),
(314,302,o),
(331,321,o),
(344,340,cs),
(351,349,o),
(355,357,o),
(358,364,cs)
);
}
);
width = 642;
}
);
note = at;
unicode = 64;
},
{
glyphname = ampersand;
layers = (
{
layerId = m01;
shapes = (
{
closed = 1;
nodes = (
(104,530,o),
(102,580,o),
(112,632,cs),
(122,684,o),
(142,737,o),
(175,764,cs),
(212,795,o),
(266,804,o),
(318,798,cs),
(369,792,o),
(420,771,o),
(449,741,cs),
(478,711,o),
(489,671,o),
(460,627,cs),
(428,579,o),
(418,547,o),
(418,523,cs),
(417,510,o),
(419,499,o),
(423,490,cs),
(430,470,o),
(438,451,o),
(442,428,cs),
(446,405,o),
(439,379,o),
(423,359,cs),
(406,338,o),
(386,314,o),
(368,287,cs),
(350,260,o),
(339,233,o),
(344,203,cs),
(349,173,o),
(388,124,o),
(429,130,cs),
(470,136,o),
(509,173,o),
(545,225,cs),
(596,300,ls),
(612,323,o),
(627,343,o),
(640,360,cs),
(666,392,o),
(685,386,o),
(694,350,cs),
(702,314,o),
(703,261,o),
(698,201,cs),
(693,140,o),
(682,84,o),
(669,41,cs),
(656,-2,o),
(644,-12,o),
(617,-11,cs),
(590,-11,o),
(558,-3,o),
(528,6,cs),
(498,15,o),
(487,22,o),
(439,14,cs),
(390,6,o),
(327,-3,o),
(264,-5,cs),
(201,-7,o),
(164,10,o),
(130,35,cs),
(96,60,o),
(70,93,o),
(59,132,cs),
(47,171,o),
(55,208,o),
(84,245,cs),
(98,264,o),
(112,283,o),
(127,302,cs),
(156,340,o),
(181,378,o),
(173,411,cs),
(169,427,o),
(157,443,o),
(145,459,cs),
(133,475,o),
(120,491,o),
(113,507,cs)
);
}
);
width = 742;
}
);
note = ampersand;
unicode = 38;
},
{
glyphname = asciicircum;
layers = (
{
layerId = m01;
shapes = (
{
closed = 1;
nodes = (
(392,763,o),
(443,739,o),
(495,707,cs),
(546,675,o),
(597,634,o),
(634,595,cs),
(671,556,o),
(694,519,o),
(689,498,cs),
(681,466,o),
(659,452,o),
(635,447,cs),
(622,444,o),
(610,443,o),
(597,444,cs),
(563,444,ls),
(544,444,o),
(500,464,o),
(457,485,cs),
(414,505,o),
(371,525,o),
(355,525,cs),
(339,525,o),
(304,508,o),
(269,491,cs),
(233,474,o),
(197,455,o),
(174,450,cs),
(153,445,o),
(121,458,o),
(95,478,cs),
(69,498,o),
(48,526,o),
(48,547,cs),
(48,562,o),
(70,591,o),
(103,624,cs),
(136,656,o),
(181,692,o),
(227,720,cs),
(273,747,o),
(319,765,o),
(355,764,cs)
);
}
);
width = 730;
}
);
note = asciicircum;
unicode = 94;
},
{
glyphname = grave;
layers = (
{
layerId = m01;
shapes = (
{
closed = 1;
nodes = (
(95,692,o),
(168,697,o),
(243,676,cs),
(318,655,o),
(395,609,o),
(441,553,cs),
(487,497,o),
(503,433,o),
(458,374,cs),
(437,346,o),
(394,342,o),
(346,355,cs),
(297,367,o),
(241,396,o),
(190,431,cs),
(139,466,o),
(95,507,o),
(68,547,cs),
(40,586,o),
(31,621,o),
(52,645,cs)
);
}
